<svg width="36" height="36" viewBox="0 0 36 36" fill="none" xmlns="http://www.w3.org/2000/svg">
<path d="M27 11.25H9C8.85082 11.25 8.70774 11.1907 8.60225 11.0852C8.49676 10.9798 8.4375 10.8367 8.4375 10.6875V5.0625C8.4375 4.91332 8.49676 4.77024 8.60225 4.66475C8.70774 4.55926 8.85082 4.5 9 4.5H27C27.1492 4.5 27.2923 4.55926 27.3977 4.66475C27.5032 4.77024 27.5625 4.91332 27.5625 5.0625V10.6875C27.5625 10.8367 27.5032 10.9798 27.3977 11.0852C27.2923 11.1907 27.1492 11.25 27 11.25ZM9.5625 10.125H26.4375V5.625H9.5625V10.125Z" fill="#ED7C00"/>
<path d="M29.25 34.3125H6.75C6.60082 34.3125 6.45774 34.2532 6.35225 34.1477C6.24676 34.0423 6.1875 33.8992 6.1875 33.75V2.25C6.1875 2.10082 6.24676 1.95774 6.35225 1.85225C6.45774 1.74676 6.60082 1.6875 6.75 1.6875H29.25C29.3992 1.6875 29.5423 1.74676 29.6477 1.85225C29.7532 1.95774 29.8125 2.10082 29.8125 2.25V33.75C29.8125 33.8992 29.7532 34.0423 29.6477 34.1477C29.5423 34.2532 29.3992 34.3125 29.25 34.3125ZM7.3125 33.1875H28.6875V2.8125H7.3125V33.1875Z" fill="#ED7C00"/>
<path d="M13.7812 16.875H9.5625C9.41332 16.875 9.27024 16.8157 9.16475 16.7102C9.05926 16.6048 9 16.4617 9 16.3125V12.9375C9 12.7883 9.05926 12.6452 9.16475 12.5398C9.27024 12.4343 9.41332 12.375 9.5625 12.375H13.7812C13.9304 12.375 14.0735 12.4343 14.179 12.5398C14.2845 12.6452 14.3438 12.7883 14.3438 12.9375V16.3125C14.3438 16.4617 14.2845 16.6048 14.179 16.7102C14.0735 16.8157 13.9304 16.875 13.7812 16.875ZM10.125 15.75H13.2188V13.5H10.125V15.75Z" fill="#ED7C00"/>
<path d="M20.1094 16.875H15.8906C15.7414 16.875 15.5984 16.8157 15.4929 16.7102C15.3874 16.6048 15.3281 16.4617 15.3281 16.3125V12.9375C15.3281 12.7883 15.3874 12.6452 15.4929 12.5398C15.5984 12.4343 15.7414 12.375 15.8906 12.375H20.1094C20.2586 12.375 20.4016 12.4343 20.5071 12.5398C20.6126 12.6452 20.6719 12.7883 20.6719 12.9375V16.3125C20.6719 16.4617 20.6126 16.6048 20.5071 16.7102C20.4016 16.8157 20.2586 16.875 20.1094 16.875ZM16.4531 15.75H19.5469V13.5H16.4531V15.75Z" fill="#ED7C00"/>
<path d="M26.4375 16.875H22.2188C22.0696 16.875 21.9265 16.8157 21.821 16.7102C21.7155 16.6048 21.6562 16.4617 21.6562 16.3125V12.9375C21.6562 12.7883 21.7155 12.6452 21.821 12.5398C21.9265 12.4343 22.0696 12.375 22.2188 12.375H26.4375C26.5867 12.375 26.7298 12.4343 26.8352 12.5398C26.9407 12.6452 27 12.7883 27 12.9375V16.3125C27 16.4617 26.9407 16.6048 26.8352 16.7102C26.7298 16.8157 26.5867 16.875 26.4375 16.875ZM22.7812 15.75H25.875V13.5H22.7812V15.75Z" fill="#ED7C00"/>
<path d="M13.7812 23.625H9.5625C9.41332 23.625 9.27024 23.5657 9.16475 23.4602C9.05926 23.3548 9 23.2117 9 23.0625V19.6875C9 19.5383 9.05926 19.3952 9.16475 19.2898C9.27024 19.1843 9.41332 19.125 9.5625 19.125H13.7812C13.9304 19.125 14.0735 19.1843 14.179 19.2898C14.2845 19.3952 14.3438 19.5383 14.3438 19.6875V23.0625C14.3438 23.2117 14.2845 23.3548 14.179 23.4602C14.0735 23.5657 13.9304 23.625 13.7812 23.625ZM10.125 22.5H13.2188V20.25H10.125V22.5Z" fill="#ED7C00"/>
<path d="M20.1094 23.625H15.8906C15.7414 23.625 15.5984 23.5657 15.4929 23.4602C15.3874 23.3548 15.3281 23.2117 15.3281 23.0625V19.6875C15.3281 19.5383 15.3874 19.3952 15.4929 19.2898C15.5984 19.1843 15.7414 19.125 15.8906 19.125H20.1094C20.2586 19.125 20.4016 19.1843 20.5071 19.2898C20.6126 19.3952 20.6719 19.5383 20.6719 19.6875V23.0625C20.6719 23.2117 20.6126 23.3548 20.5071 23.4602C20.4016 23.5657 20.2586 23.625 20.1094 23.625ZM16.4531 22.5H19.5469V20.25H16.4531V22.5Z" fill="#ED7C00"/>
<path d="M26.4375 23.625H22.2188C22.0696 23.625 21.9265 23.5657 21.821 23.4602C21.7155 23.3548 21.6562 23.2117 21.6562 23.0625V19.6875C21.6562 19.5383 21.7155 19.3952 21.821 19.2898C21.9265 19.1843 22.0696 19.125 22.2188 19.125H26.4375C26.5867 19.125 26.7298 19.1843 26.8352 19.2898C26.9407 19.3952 27 19.5383 27 19.6875V23.0625C27 23.2117 26.9407 23.3548 26.8352 23.4602C26.7298 23.5657 26.5867 23.625 26.4375 23.625ZM22.7812 22.5H25.875V20.25H22.7812V22.5Z" fill="#ED7C00"/>
<path d="M13.7812 30.375H9.5625C9.41332 30.375 9.27024 30.3157 9.16475 30.2102C9.05926 30.1048 9 29.9617 9 29.8125V26.4375C9 26.2883 9.05926 26.1452 9.16475 26.0398C9.27024 25.9343 9.41332 25.875 9.5625 25.875H13.7812C13.9304 25.875 14.0735 25.9343 14.179 26.0398C14.2845 26.1452 14.3438 26.2883 14.3438 26.4375V29.8125C14.3438 29.9617 14.2845 30.1048 14.179 30.2102C14.0735 30.3157 13.9304 30.375 13.7812 30.375ZM10.125 29.25H13.2188V27H10.125V29.25Z" fill="#ED7C00"/>
<path d="M20.1094 30.375H15.8906C15.7414 30.375 15.5984 30.3157 15.4929 30.2102C15.3874 30.1048 15.3281 29.9617 15.3281 29.8125V26.4375C15.3281 26.2883 15.3874 26.1452 15.4929 26.0398C15.5984 25.9343 15.7414 25.875 15.8906 25.875H20.1094C20.2586 25.875 20.4016 25.9343 20.5071 26.0398C20.6126 26.1452 20.6719 26.2883 20.6719 26.4375V29.8125C20.6719 29.9617 20.6126 30.1048 20.5071 30.2102C20.4016 30.3157 20.2586 30.375 20.1094 30.375ZM16.4531 29.25H19.5469V27H16.4531V29.25Z" fill="#ED7C00"/>
<path d="M26.4375 30.375H22.2188C22.0696 30.375 21.9265 30.3157 21.821 30.2102C21.7155 30.1048 21.6562 29.9617 21.6562 29.8125V26.4375C21.6562 26.2883 21.7155 26.1452 21.821 26.0398C21.9265 25.9343 22.0696 25.875 22.2188 25.875H26.4375C26.5867 25.875 26.7298 25.9343 26.8352 26.0398C26.9407 26.1452 27 26.2883 27 26.4375V29.8125C27 29.9617 26.9407 30.1048 26.8352 30.2102C26.7298 30.3157 26.5867 30.375 26.4375 30.375ZM22.7812 29.25H25.875V27H22.7812V29.25Z" fill="#ED7C00"/>
</svg>
