<svg width="36" height="36" viewBox="0 0 36 36" fill="none" xmlns="http://www.w3.org/2000/svg">
<g clip-path="url(#clip0_1_17393)">
<path d="M33.75 32.625C33.75 31.3824 32.7426 30.375 31.5 30.375H30.375V14.0625H33.75C34.7597 14.0625 35.6451 13.3909 35.9168 12.4189C36.189 11.4469 35.7806 10.413 34.9183 9.88931L19.1683 0.326812C18.8094 0.108562 18.4044 0 18 0C17.5956 0 17.1911 0.108562 16.8323 0.326812L1.08225 9.88931C0.219938 10.413 -0.189 11.4474 0.0838125 12.4189C0.3555 13.3909 1.24144 14.0625 2.25 14.0625H5.625V30.375H4.5C3.25744 30.375 2.25 31.3824 2.25 32.625C1.00744 32.625 0 33.6324 0 34.875V36H36V34.875C36 33.6324 34.9926 32.625 33.75 32.625ZM29.25 30.375H27V14.0625H29.25V30.375ZM10.125 14.0625H12.375V30.375H10.125V14.0625ZM13.5 14.0625H15.75V30.375H13.5V14.0625ZM16.875 14.0625H19.125V30.375H16.875V14.0625ZM20.25 14.0625H22.5V30.375H20.25V14.0625ZM23.625 14.0625H25.875V30.375H23.625V14.0625ZM2.25 12.9375C1.74769 12.9375 1.30219 12.5994 1.16662 12.1151C1.03106 11.6319 1.23637 11.1116 1.66612 10.8512L17.4161 1.28813C17.5922 1.18125 17.7947 1.125 18 1.125C18.2064 1.125 18.4078 1.18125 18.5844 1.28869L34.3344 10.8512C34.7642 11.1116 34.9695 11.6319 34.8334 12.1157C34.6984 12.5994 34.2523 12.9375 33.75 12.9375H2.25ZM6.75 14.0625H9V30.375H6.75V14.0625ZM4.5 31.5H31.5C32.1216 31.5 32.625 32.004 32.625 32.625H3.375C3.375 32.004 3.879 31.5 4.5 31.5ZM1.125 34.875C1.125 34.254 1.629 33.75 2.25 33.75H33.75C34.3716 33.75 34.875 34.254 34.875 34.875H1.125Z" fill="#ED7C00"/>
<path d="M18 5.0625C16.4464 5.0625 15.1875 6.32137 15.1875 7.875C15.1875 9.42863 16.4464 10.6875 18 10.6875C19.5536 10.6875 20.8125 9.42863 20.8125 7.875C20.8125 6.32137 19.5536 5.0625 18 5.0625ZM18 9.5625C17.0685 9.5625 16.3125 8.80706 16.3125 7.875C16.3125 6.94294 17.0685 6.1875 18 6.1875C18.9326 6.1875 19.6875 6.94294 19.6875 7.875C19.6875 8.80706 18.9326 9.5625 18 9.5625Z" fill="#ED7C00"/>
</g>
<defs>
<clipPath id="clip0_1_17393">
<rect width="36" height="36" fill="white"/>
</clipPath>
</defs>
</svg>
