<svg width="36" height="36" viewBox="0 0 36 36" fill="none" xmlns="http://www.w3.org/2000/svg">
<path d="M30.025 0H5.97492C5.00102 0 4.20874 0.792281 4.20874 1.76618V34.2338C4.20874 35.2077 5.00102 36 5.97492 36H24.6138C24.7633 36 24.9067 35.9407 25.0123 35.8349L31.6261 29.2211C31.7319 29.1154 31.7912 28.9721 31.7912 28.8226V1.76618C31.7912 0.792281 30.9989 0 30.025 0ZM25.1774 34.0755V30.0251C25.1774 29.6728 25.464 29.3862 25.8163 29.3862H29.8668L25.1774 34.0755ZM30.6639 28.2589H25.8163C24.8424 28.2589 24.0501 29.0512 24.0501 30.0251V34.8727H5.97492C5.62265 34.8727 5.33606 34.5861 5.33606 34.2338V1.76618C5.33606 1.41391 5.62265 1.12732 5.97492 1.12732H30.025C30.3773 1.12732 30.6639 1.41391 30.6639 1.76618V28.2589Z" fill="#ED7C00"/>
<path d="M14.3925 4.81006H9.58249C9.27122 4.81006 9.0188 5.06241 9.0188 5.37375C9.0188 5.6851 9.27115 5.93745 9.58249 5.93745H11.4238V11.3863C11.4238 11.6976 11.6762 11.95 11.9875 11.95C12.2989 11.95 12.5512 11.6977 12.5512 11.3863V5.93745H14.3926C14.7038 5.93745 14.9563 5.6851 14.9563 5.37375C14.9563 5.06241 14.7038 4.81006 14.3925 4.81006Z" fill="#ED7C00"/>
<path d="M20.3437 11.2243L18.6684 5.64024C18.5194 5.14369 18.071 4.81006 17.5526 4.81006H17.2448C16.7264 4.81006 16.278 5.14369 16.129 5.64024L14.4537 11.2243C14.3643 11.5225 14.5335 11.8367 14.8317 11.9262C15.1299 12.0158 15.4441 11.8464 15.5335 11.5483L15.7737 10.7475H19.0235L19.2637 11.5482C19.337 11.7924 19.5609 11.9501 19.8035 11.9501C19.857 11.9501 19.9116 11.9423 19.9657 11.9262C20.2639 11.8367 20.4332 11.5225 20.3437 11.2243ZM16.112 9.62007L17.2088 5.96417C17.2135 5.94842 17.2283 5.93738 17.2448 5.93738H17.5526C17.5691 5.93738 17.5839 5.94835 17.5886 5.96417L18.6853 9.62007H16.112Z" fill="#ED7C00"/>
<path d="M26.2781 11.0631L24.3999 8.38008L26.2781 5.69709C26.4566 5.44207 26.3946 5.09058 26.1396 4.91205C25.8845 4.73353 25.5331 4.79548 25.3545 5.05057L23.7119 7.39718L22.0693 5.05057C21.8907 4.79548 21.5392 4.73346 21.2842 4.91205C21.0291 5.09058 20.9671 5.44207 21.1457 5.69709L23.0239 8.38008L21.1458 11.0631C20.9673 11.3181 21.0293 11.6696 21.2844 11.8481C21.3827 11.917 21.4955 11.95 21.6071 11.95C21.7848 11.95 21.9597 11.8662 22.0693 11.7095L23.712 9.36291L25.3546 11.7095C25.4643 11.8662 25.6392 11.95 25.8168 11.95C25.9284 11.95 26.0413 11.9169 26.1396 11.8481C26.3946 11.6696 26.4567 11.3181 26.2781 11.0631Z" fill="#ED7C00"/>
<path d="M9.58246 15.0312H8.37998C8.06871 15.0312 7.81628 15.2836 7.81628 15.5949C7.81628 15.9063 8.06864 16.1586 8.37998 16.1586H9.58246C9.89374 16.1586 10.1462 15.9063 10.1462 15.5949C10.1462 15.2836 9.89374 15.0312 9.58246 15.0312Z" fill="#ED7C00"/>
<path d="M9.58246 17.4363H8.37998C8.06871 17.4363 7.81628 17.6886 7.81628 18C7.81628 18.3113 8.06864 18.5637 8.37998 18.5637H9.58246C9.89374 18.5637 10.1462 18.3113 10.1462 18C10.1462 17.6886 9.89374 17.4363 9.58246 17.4363Z" fill="#ED7C00"/>
<path d="M9.58246 19.8413H8.37998C8.06871 19.8413 7.81628 20.0937 7.81628 20.405C7.81628 20.7163 8.06864 20.9687 8.37998 20.9687H9.58246C9.89374 20.9687 10.1462 20.7163 10.1462 20.405C10.1462 20.0937 9.89374 19.8413 9.58246 19.8413Z" fill="#ED7C00"/>
<path d="M27.6201 15.0312H26.4176C26.1063 15.0312 25.8539 15.2836 25.8539 15.5949C25.8539 15.9063 26.1062 16.1586 26.4176 16.1586H27.6201C27.9313 16.1586 28.1838 15.9063 28.1838 15.5949C28.1838 15.2836 27.9314 15.0312 27.6201 15.0312Z" fill="#ED7C00"/>
<path d="M27.6201 17.4363H26.4176C26.1063 17.4363 25.8539 17.6886 25.8539 18C25.8539 18.3113 26.1062 18.5637 26.4176 18.5637H27.6201C27.9313 18.5637 28.1838 18.3113 28.1838 18C28.1838 17.6886 27.9314 17.4363 27.6201 17.4363Z" fill="#ED7C00"/>
<path d="M27.6201 19.8413H26.4176C26.1063 19.8413 25.8539 20.0937 25.8539 20.405C25.8539 20.7163 26.1062 20.9687 26.4176 20.9687H27.6201C27.9313 20.9687 28.1838 20.7163 28.1838 20.405C28.1838 20.0937 27.9314 19.8413 27.6201 19.8413Z" fill="#ED7C00"/>
<path d="M19.2025 15.0312H11.9875C11.6762 15.0312 11.4238 15.2836 11.4238 15.5949C11.4238 15.9063 11.6762 16.1586 11.9875 16.1586H19.2026C19.5138 16.1586 19.7663 15.9063 19.7663 15.5949C19.7663 15.2836 19.5138 15.0312 19.2025 15.0312Z" fill="#ED7C00"/>
<path d="M16.7975 17.4363H11.9875C11.6762 17.4363 11.4238 17.6886 11.4238 18C11.4238 18.3113 11.6762 18.5637 11.9875 18.5637H16.7975C17.1088 18.5637 17.3612 18.3113 17.3612 18C17.3612 17.6886 17.1088 17.4363 16.7975 17.4363Z" fill="#ED7C00"/>
<path d="M19.2025 19.8413H11.9875C11.6762 19.8413 11.4238 20.0937 11.4238 20.405C11.4238 20.7163 11.6762 20.9687 11.9875 20.9687H19.2026C19.5138 20.9687 19.7663 20.7163 19.7663 20.405C19.7663 20.0937 19.5138 19.8413 19.2025 19.8413Z" fill="#ED7C00"/>
<path d="M10.7474 27.2235V25.2647C11.1627 25.4008 11.4238 25.6748 11.4238 25.9289C11.4238 26.2402 11.6762 26.4926 11.9875 26.4926C12.2988 26.4926 12.5512 26.2403 12.5512 25.9289C12.5512 25.0301 11.7941 24.2978 10.7475 24.1019V24.0124C10.7475 23.7012 10.4951 23.4487 10.1838 23.4487C9.87243 23.4487 9.62008 23.7011 9.62008 24.0124V24.1019C8.57348 24.2978 7.81635 25.0301 7.81635 25.9289C7.81635 27.1849 8.81936 27.7127 9.62008 28.0165V29.9753C9.20475 29.8392 8.94367 29.5651 8.94367 29.3111C8.94367 28.9998 8.69132 28.7474 8.37998 28.7474C8.06864 28.7474 7.81628 28.9998 7.81628 29.3111C7.81628 30.21 8.57341 30.9422 9.62001 31.1381V31.2276C9.62001 31.5389 9.87236 31.7913 10.1837 31.7913C10.4951 31.7913 10.7474 31.539 10.7474 31.2276V31.1381C11.794 30.9422 12.5511 30.21 12.5511 29.3111C12.5511 28.0551 11.5481 27.5273 10.7474 27.2235ZM9.62001 26.7866C9.05807 26.5113 8.9436 26.2707 8.9436 25.9289C8.9436 25.6748 9.20467 25.4008 9.62001 25.2647V26.7866ZM10.7474 29.9752V28.4533C11.3093 28.7286 11.4238 28.9692 11.4238 29.311C11.4238 29.5651 11.1627 29.8392 10.7474 29.9752Z" fill="#ED7C00"/>
<path d="M18.6012 24.6514H14.3924C14.0812 24.6514 13.8287 24.9037 13.8287 25.2151C13.8287 25.5264 14.0811 25.7788 14.3924 25.7788H18.6012C18.9125 25.7788 19.1649 25.5264 19.1649 25.2151C19.1649 24.9037 18.9125 24.6514 18.6012 24.6514Z" fill="#ED7C00"/>
<path d="M16.7975 29.4614H14.3924C14.0812 29.4614 13.8287 29.7138 13.8287 30.0251C13.8287 30.3364 14.0811 30.5888 14.3924 30.5888H16.7975C17.1087 30.5888 17.3612 30.3365 17.3612 30.0251C17.3611 29.7138 17.1087 29.4614 16.7975 29.4614Z" fill="#ED7C00"/>
<path d="M20.4051 29.4614H19.2026C18.8913 29.4614 18.6389 29.7138 18.6389 30.0251C18.6389 30.3364 18.8913 30.5888 19.2026 30.5888H20.4051C20.7164 30.5888 20.9688 30.3365 20.9688 30.0251C20.9687 29.7138 20.7164 29.4614 20.4051 29.4614Z" fill="#ED7C00"/>
<path d="M22.2087 27.0564H14.3924C14.0812 27.0564 13.8287 27.3087 13.8287 27.6201C13.8287 27.9314 14.0811 28.1838 14.3924 28.1838H22.2087C22.52 28.1838 22.7724 27.9314 22.7724 27.6201C22.7724 27.3087 22.52 27.0564 22.2087 27.0564Z" fill="#ED7C00"/>
<path d="M19.2025 18.5637C19.5138 18.5637 19.7662 18.3113 19.7662 18C19.7662 17.6887 19.5138 17.4363 19.2025 17.4363C18.8912 17.4363 18.6388 17.6887 18.6388 18C18.6388 18.3113 18.8912 18.5637 19.2025 18.5637Z" fill="#ED7C00"/>
<path d="M21.6075 18.5637C21.9188 18.5637 22.1712 18.3113 22.1712 18C22.1712 17.6887 21.9188 17.4363 21.6075 17.4363C21.2962 17.4363 21.0438 17.6887 21.0438 18C21.0438 18.3113 21.2962 18.5637 21.6075 18.5637Z" fill="#ED7C00"/>
<path d="M24.0125 18.5637C24.3239 18.5637 24.5762 18.3113 24.5762 18C24.5762 17.6887 24.3239 17.4363 24.0125 17.4363C23.7012 17.4363 23.4489 17.6887 23.4489 18C23.4489 18.3113 23.7012 18.5637 24.0125 18.5637Z" fill="#ED7C00"/>
<path d="M21.6075 16.1586C21.9188 16.1586 22.1712 15.9063 22.1712 15.5949C22.1712 15.2836 21.9188 15.0312 21.6075 15.0312C21.2962 15.0312 21.0438 15.2836 21.0438 15.5949C21.0438 15.9063 21.2962 16.1586 21.6075 16.1586Z" fill="#ED7C00"/>
<path d="M24.0125 16.1586C24.3239 16.1586 24.5762 15.9063 24.5762 15.5949C24.5762 15.2836 24.3239 15.0312 24.0125 15.0312C23.7012 15.0312 23.4489 15.2836 23.4489 15.5949C23.4489 15.9063 23.7012 16.1586 24.0125 16.1586Z" fill="#ED7C00"/>
<path d="M21.6075 20.9687C21.9188 20.9687 22.1712 20.7163 22.1712 20.405C22.1712 20.0937 21.9188 19.8413 21.6075 19.8413C21.2962 19.8413 21.0438 20.0937 21.0438 20.405C21.0438 20.7163 21.2962 20.9687 21.6075 20.9687Z" fill="#ED7C00"/>
<path d="M24.0125 20.9687C24.3239 20.9687 24.5762 20.7163 24.5762 20.405C24.5762 20.0937 24.3239 19.8413 24.0125 19.8413C23.7012 19.8413 23.4489 20.0937 23.4489 20.405C23.4489 20.7163 23.7012 20.9687 24.0125 20.9687Z" fill="#ED7C00"/>
</svg>
