<svg width="36" height="36" viewBox="0 0 36 36" fill="none" xmlns="http://www.w3.org/2000/svg">
<path d="M8.15674 15.7501C8.00135 15.7501 7.87549 15.6243 7.87549 15.4688V5.90698C7.87549 5.75152 8.00128 5.62573 8.15674 5.62573C8.3122 5.62573 8.43799 5.75152 8.43799 5.90698V15.4688C8.43799 15.6243 8.3122 15.7501 8.15674 15.7501Z" fill="#ED7C00"/>
<path d="M18.8437 15.7502H8.15674C8.00135 15.7502 7.87549 15.6244 7.87549 15.4689C7.87549 15.3135 8.00128 15.1877 8.15674 15.1877H18.8437C18.9991 15.1877 19.1249 15.3135 19.1249 15.4689C19.1249 15.6244 18.9991 15.7502 18.8437 15.7502ZM9.28167 13.5003C9.22605 13.5003 9.17169 13.4838 9.12545 13.4529C9.07921 13.422 9.04317 13.3781 9.02188 13.3267C9.0006 13.2753 8.99503 13.2188 9.00588 13.1642C9.01673 13.1097 9.0435 13.0596 9.08282 13.0202L12.4576 9.64543C12.4836 9.61857 12.5146 9.59714 12.5489 9.5824C12.5832 9.56766 12.6201 9.55991 12.6575 9.55958C12.6948 9.55926 12.7318 9.56637 12.7664 9.58051C12.801 9.59466 12.8324 9.61554 12.8588 9.64195C12.8852 9.66835 12.9061 9.69976 12.9202 9.73432C12.9344 9.76889 12.9415 9.80592 12.9412 9.84326C12.9408 9.88061 12.9331 9.91751 12.9183 9.95183C12.9036 9.98614 12.8822 10.0172 12.8553 10.0431L9.48051 13.4179C9.45443 13.4441 9.42344 13.4648 9.38931 13.479C9.35519 13.4931 9.31861 13.5004 9.28167 13.5003Z" fill="#ED7C00"/>
<path d="M14.344 11.813C14.307 11.813 14.2704 11.8057 14.2363 11.7916C14.2022 11.7775 14.1712 11.7567 14.1451 11.7305L12.4577 10.0431C12.4308 10.0172 12.4094 9.98614 12.3947 9.95183C12.3799 9.91751 12.3722 9.88061 12.3718 9.84326C12.3715 9.80592 12.3786 9.76889 12.3928 9.73432C12.4069 9.69976 12.4278 9.66835 12.4542 9.64195C12.4806 9.61554 12.512 9.59466 12.5466 9.58051C12.5811 9.56637 12.6182 9.55926 12.6555 9.55958C12.6929 9.55991 12.7298 9.56766 12.7641 9.5824C12.7984 9.59714 12.8294 9.61857 12.8554 9.64543L14.5428 11.3329C14.5821 11.3722 14.6089 11.4223 14.6198 11.4769C14.6306 11.5314 14.625 11.5879 14.6037 11.6393C14.5825 11.6907 14.5464 11.7346 14.5002 11.7655C14.4539 11.7964 14.3996 11.8129 14.344 11.813Z" fill="#ED7C00"/>
<path d="M14.3439 11.8127C14.2883 11.8127 14.234 11.7962 14.1877 11.7653C14.1415 11.7344 14.1054 11.6905 14.0841 11.6391C14.0629 11.5877 14.0573 11.5312 14.0681 11.4766C14.079 11.4221 14.1058 11.372 14.1451 11.3327L18.6449 6.83293C18.6708 6.80607 18.7019 6.78464 18.7362 6.7699C18.7705 6.75516 18.8074 6.74741 18.8447 6.74708C18.8821 6.74676 18.9191 6.75387 18.9537 6.76801C18.9882 6.78216 19.0196 6.80304 19.0461 6.82945C19.0725 6.85585 19.0933 6.88726 19.1075 6.92182C19.1216 6.95639 19.1287 6.99342 19.1284 7.03076C19.1281 7.06811 19.1203 7.10501 19.1056 7.13933C19.0909 7.17364 19.0694 7.20468 19.0426 7.23062L14.5428 11.7303C14.5167 11.7565 14.4857 11.7773 14.4516 11.7914C14.4175 11.8056 14.3809 11.8128 14.3439 11.8127Z" fill="#ED7C00"/>
<path d="M18.8438 8.43809C18.6883 8.43809 18.5625 8.3123 18.5625 8.15684V7.03198C18.5625 6.87652 18.6883 6.75073 18.8438 6.75073C18.9992 6.75073 19.125 6.87652 19.125 7.03198V8.15691C19.125 8.19385 19.1178 8.23043 19.1036 8.26455C19.0895 8.29868 19.0688 8.32969 19.0427 8.3558C19.0165 8.38192 18.9855 8.40263 18.9514 8.41675C18.9173 8.43087 18.8807 8.43812 18.8438 8.43809Z" fill="#ED7C00"/>
<path d="M18.8438 7.31319H17.7188C17.5633 7.31319 17.4375 7.1874 17.4375 7.03194C17.4375 6.87648 17.5633 6.75069 17.7188 6.75069H18.8438C18.9992 6.75069 19.125 6.87648 19.125 7.03194C19.125 7.1874 18.9992 7.31319 18.8438 7.31319ZM21.9378 2.81347H14.0628C14.0165 2.81346 13.9709 2.80203 13.9301 2.78018C13.8893 2.75834 13.8545 2.72676 13.8288 2.68824L12.7039 1.00081C12.6834 0.970095 12.6691 0.935637 12.6619 0.899406C12.6547 0.863176 12.6548 0.825885 12.662 0.789666C12.6693 0.753447 12.6836 0.719012 12.7041 0.68833C12.7247 0.657648 12.7511 0.631322 12.7819 0.610857C12.8126 0.590323 12.847 0.576049 12.8833 0.568854C12.9195 0.561659 12.9568 0.561684 12.993 0.568928C13.0293 0.576171 13.0637 0.59049 13.0944 0.611066C13.1251 0.631641 13.1514 0.658068 13.1719 0.688834L14.2134 2.25097H21.8214L23.426 0.645943C23.4792 0.595434 23.55 0.567699 23.6233 0.568651C23.6966 0.569603 23.7667 0.599167 23.8186 0.651039C23.8704 0.702911 23.9 0.772987 23.9009 0.846327C23.9018 0.919666 23.8741 0.990466 23.8235 1.04363L22.1367 2.73106C22.084 2.78381 22.0124 2.81345 21.9378 2.81347ZM12.3754 2.25104H5.90698C5.75159 2.25104 5.62573 2.12525 5.62573 1.96979C5.62573 1.8144 5.75152 1.68854 5.90698 1.68854H12.3754C12.5308 1.68854 12.6566 1.81433 12.6566 1.96979C12.6566 2.00672 12.6494 2.0433 12.6352 2.07743C12.6211 2.11155 12.6004 2.14256 12.5743 2.16868C12.5482 2.1948 12.5171 2.21552 12.483 2.22965C12.4489 2.24378 12.4123 2.25105 12.3754 2.25104ZM30.0931 2.25104H23.6248C23.4693 2.25104 23.3435 2.12525 23.3435 1.96979C23.3435 1.8144 23.4693 1.68854 23.6248 1.68854H30.0931C30.2485 1.68854 30.3743 1.81433 30.3743 1.96979C30.3743 2.12525 30.2485 2.25104 30.0931 2.25104Z" fill="#ED7C00"/>
<path d="M20.25 1.68848H15.7502C15.5949 1.68848 15.469 1.56269 15.469 1.40723C15.469 1.25177 15.5948 1.12598 15.7502 1.12598H20.25C20.4054 1.12598 20.5312 1.25177 20.5312 1.40723C20.5312 1.56269 20.4054 1.68848 20.25 1.68848ZM28.9682 30.9366H26.7183C26.5628 30.9366 26.437 30.8109 26.437 30.6555C26.437 30.5 26.5628 30.3742 26.7183 30.3742H28.9682C29.1236 30.3742 29.2494 30.5 29.2494 30.6555C29.2494 30.6924 29.2422 30.729 29.228 30.7631C29.2139 30.7972 29.1932 30.8282 29.1671 30.8544C29.1409 30.8805 29.1099 30.9012 29.0758 30.9153C29.0417 30.9294 29.0051 30.9367 28.9682 30.9366Z" fill="#ED7C00"/>
<path d="M26.7181 33.1864C26.5627 33.1864 26.4369 33.0606 26.4369 32.9052V30.6554C26.4369 30.4999 26.5627 30.3741 26.7181 30.3741C26.8736 30.3741 26.9994 30.4999 26.9994 30.6554V32.9052C26.9994 32.9422 26.9921 32.9787 26.978 33.0129C26.9639 33.047 26.9431 33.078 26.917 33.1041C26.8909 33.1302 26.8599 33.1509 26.8258 33.1651C26.7916 33.1792 26.7551 33.1864 26.7181 33.1864ZM13.5002 30.3741C10.709 30.3741 8.43799 28.1034 8.43799 25.312C8.43799 22.5205 10.709 20.2498 13.5002 20.2498C16.2914 20.2498 18.5624 22.5205 18.5624 25.312C18.5624 28.1034 16.2914 30.3741 13.5002 30.3741ZM13.5002 20.8123C11.0191 20.8123 9.00049 22.8309 9.00049 25.312C9.00049 27.793 11.0191 29.8117 13.5002 29.8117C15.9813 29.8117 17.9999 27.793 17.9999 25.312C17.9999 22.8309 15.9813 20.8123 13.5002 20.8123Z" fill="#ED7C00"/>
<path d="M13.5002 31.4992C10.709 31.4992 8.43799 29.2284 8.43799 26.4369C8.43797 26.4 8.44523 26.3634 8.45936 26.3293C8.47349 26.2952 8.49421 26.2642 8.52033 26.238C8.54645 26.2119 8.57746 26.1912 8.61159 26.1771C8.64572 26.163 8.6823 26.1557 8.71924 26.1558C8.87463 26.1558 9.00049 26.2816 9.00049 26.4369C9.00049 28.9181 11.0191 30.9367 13.5002 30.9367C15.9813 30.9367 17.9999 28.9181 17.9999 26.4369C17.9999 26.2816 18.1257 26.1558 18.2812 26.1558C18.4366 26.1558 18.5624 26.2816 18.5624 26.4369C18.5624 29.2284 16.2914 31.4992 13.5002 31.4992Z" fill="#ED7C00"/>
<path d="M8.71924 26.7182C8.56378 26.7182 8.43799 26.5924 8.43799 26.437V25.3121C8.43799 25.1567 8.56378 25.0309 8.71924 25.0309C8.87463 25.0309 9.00049 25.1567 9.00049 25.3121V26.437C9.00049 26.5924 8.8747 26.7182 8.71924 26.7182ZM18.2812 26.7182C18.1257 26.7182 17.9999 26.5924 17.9999 26.437V25.3121C17.9999 25.1567 18.1257 25.0309 18.2812 25.0309C18.4366 25.0309 18.5624 25.1567 18.5624 25.3121V26.437C18.5624 26.5924 18.4366 26.7182 18.2812 26.7182ZM13.5002 27.562C12.2596 27.562 11.2503 26.5528 11.2503 25.3121C11.2503 24.0712 12.2596 23.0623 13.5002 23.0623C14.7408 23.0623 15.7501 24.0712 15.7501 25.3121C15.7501 26.5529 14.7407 27.562 13.5002 27.562ZM13.5002 23.6247C12.5697 23.6247 11.8128 24.3816 11.8128 25.3121C11.8128 26.2426 12.5697 26.9995 13.5002 26.9995C14.4307 26.9995 15.1876 26.2426 15.1876 25.3121C15.1876 24.3816 14.4307 23.6247 13.5002 23.6247Z" fill="#ED7C00"/>
<path d="M15.3877 26.1558C15.3271 26.1557 15.2681 26.1361 15.2195 26.0999C15.1709 26.0637 15.1353 26.0128 15.1179 25.9548C14.907 25.2451 14.2418 24.7496 13.5003 24.7496C12.7588 24.7496 12.0937 25.2451 11.8827 25.9548C11.8382 26.1036 11.6833 26.1876 11.5328 26.1443C11.4613 26.1229 11.4012 26.0741 11.3657 26.0085C11.3301 25.9429 11.3221 25.8658 11.3433 25.7943C11.6247 24.8479 12.5116 24.1871 13.5003 24.1871C14.4891 24.1871 15.3758 24.8479 15.6574 25.7943C15.6786 25.8658 15.6705 25.9429 15.635 26.0085C15.5995 26.0741 15.5394 26.1229 15.4679 26.1443C15.4418 26.1518 15.4148 26.1557 15.3877 26.1558ZM12.0914 24.1844C12.0545 24.1844 12.0179 24.1771 11.9838 24.163C11.9496 24.1489 11.9187 24.1281 11.8926 24.102L9.92122 22.1306C9.86849 22.0779 9.83887 22.0064 9.83887 21.9318C9.83887 21.8572 9.86849 21.7857 9.92122 21.733C9.97394 21.6803 10.0455 21.6506 10.12 21.6506C10.1946 21.6506 10.2661 21.6803 10.3188 21.733L12.2903 23.7043C12.3296 23.7436 12.3564 23.7938 12.3673 23.8483C12.3782 23.9029 12.3726 23.9594 12.3513 24.0108C12.33 24.0622 12.294 24.1062 12.2477 24.137C12.2014 24.1679 12.147 24.1844 12.0914 24.1844ZM13.5003 30.3743C13.3449 30.3743 13.2191 30.2485 13.2191 30.093V27.2807C13.2191 27.1253 13.3449 26.9995 13.5003 26.9995C13.6558 26.9995 13.7816 27.1253 13.7816 27.2807V30.093C13.7816 30.1299 13.7743 30.1665 13.7602 30.2006C13.7461 30.2348 13.7253 30.2658 13.6992 30.2919C13.6731 30.318 13.6421 30.3387 13.608 30.3529C13.5738 30.367 13.5373 30.3743 13.5003 30.3743ZM27.8432 23.6247H21.0937C20.9382 23.6247 20.8124 23.4989 20.8124 23.3434C20.8124 23.3065 20.8197 23.2699 20.8338 23.2358C20.8479 23.2017 20.8686 23.1706 20.8947 23.1445C20.9209 23.1184 20.9519 23.0977 20.986 23.0836C21.0201 23.0695 21.0567 23.0622 21.0937 23.0622H27.8432C27.9987 23.0622 28.1245 23.188 28.1245 23.3434C28.1245 23.4989 27.9987 23.6247 27.8432 23.6247ZM27.8432 25.3121H21.0937C20.9382 25.3121 20.8124 25.1863 20.8124 25.0309C20.8124 24.8754 20.9382 24.7496 21.0937 24.7496H27.8432C27.9987 24.7496 28.1245 24.8754 28.1245 25.0309C28.1245 25.1863 27.9987 25.3121 27.8432 25.3121ZM27.8432 26.9995H21.0937C20.9382 26.9995 20.8124 26.8737 20.8124 26.7182C20.8124 26.5628 20.9382 26.437 21.0937 26.437H27.8432C27.9987 26.437 28.1245 26.5628 28.1245 26.7182C28.1245 26.8737 27.9987 26.9995 27.8432 26.9995Z" fill="#ED7C00"/>
<path d="M23.9057 28.6867H21.0935C20.938 28.6867 20.8123 28.5609 20.8123 28.4055C20.8123 28.2501 20.938 28.1243 21.0935 28.1243H23.9057C24.0612 28.1243 24.187 28.2501 24.187 28.4055C24.187 28.4425 24.1797 28.479 24.1656 28.5132C24.1515 28.5473 24.1308 28.5783 24.1046 28.6044C24.0785 28.6305 24.0475 28.6512 24.0134 28.6654C23.9792 28.6795 23.9427 28.6867 23.9057 28.6867Z" fill="#ED7C00"/>
<path d="M27.8431 9.00049H21.0935C20.938 9.00049 20.8123 8.8747 20.8123 8.71924C20.8123 8.56385 20.938 8.43799 21.0935 8.43799H27.8431C27.9985 8.43799 28.1243 8.56378 28.1243 8.71924C28.1243 8.8747 27.9985 9.00049 27.8431 9.00049Z" fill="#ED7C00"/>
<path d="M27.8431 10.688H21.0935C20.938 10.688 20.8123 10.5622 20.8123 10.4067C20.8123 10.2513 20.938 10.1255 21.0935 10.1255H27.8431C27.9985 10.1255 28.1243 10.2513 28.1243 10.4067C28.1243 10.5622 27.9985 10.688 27.8431 10.688Z" fill="#ED7C00"/>
<path d="M27.8431 12.3752H21.0935C20.938 12.3752 20.8123 12.2495 20.8123 12.094C20.8123 11.9386 20.938 11.8127 21.0935 11.8127H27.8431C27.9985 11.8127 28.1243 11.9385 28.1243 12.094C28.1243 12.2495 27.9985 12.3752 27.8431 12.3752Z" fill="#ED7C00"/>
<path d="M23.9057 14.0627H21.0935C20.938 14.0627 20.8123 13.937 20.8123 13.7815C20.8123 13.626 20.938 13.5002 21.0935 13.5002H23.9057C24.0612 13.5002 24.187 13.626 24.187 13.7815C24.187 13.937 24.0612 14.0627 23.9057 14.0627Z" fill="#ED7C00"/>
<path d="M5.90698 34.3115C5.75159 34.3115 5.62573 34.1857 5.62573 34.0303V1.96973C5.62573 1.81434 5.75152 1.68848 5.90698 1.68848C6.06244 1.68848 6.18823 1.81427 6.18823 1.96973V34.0303C6.18825 34.0673 6.18099 34.1038 6.16686 34.138C6.15273 34.1721 6.13201 34.2031 6.10589 34.2292C6.07977 34.2553 6.04876 34.276 6.01463 34.2902C5.9805 34.3043 5.94392 34.3115 5.90698 34.3115Z" fill="#ED7C00"/>
<path d="M30.093 31.4991C29.9376 31.4991 29.8118 31.3734 29.8118 31.2179V1.96973C29.8118 1.81434 29.9376 1.68848 30.093 1.68848C30.2485 1.68848 30.3743 1.81427 30.3743 1.96973V31.218C30.3743 31.2549 30.367 31.2915 30.3529 31.3256C30.3388 31.3597 30.318 31.3907 30.2919 31.4169C30.2658 31.443 30.2348 31.4637 30.2007 31.4778C30.1665 31.4919 30.13 31.4992 30.093 31.4991Z" fill="#ED7C00"/>
<path d="M27.2807 34.3114C27.2251 34.3114 27.1707 34.2949 27.1245 34.264C27.0782 34.2331 27.0422 34.1892 27.0209 34.1378C26.9996 34.0864 26.9941 34.0299 27.0049 33.9753C27.0158 33.9208 27.0425 33.8707 27.0819 33.8313L29.8942 31.019C29.9202 30.9921 29.9512 30.9707 29.9855 30.9559C30.0198 30.9412 30.0567 30.9334 30.0941 30.9331C30.1314 30.9328 30.1685 30.9399 30.203 30.9541C30.2376 30.9682 30.269 30.9891 30.2954 31.0155C30.3218 31.0419 30.3427 31.0733 30.3568 31.1079C30.371 31.1424 30.3781 31.1795 30.3778 31.2168C30.3774 31.2541 30.3697 31.291 30.3549 31.3254C30.3402 31.3597 30.3188 31.3907 30.2919 31.4167L27.4795 34.229C27.4535 34.2552 27.4225 34.2759 27.3884 34.2901C27.3542 34.3042 27.3176 34.3115 27.2807 34.3114Z" fill="#ED7C00"/>
<path d="M27.2807 34.3115H5.90698C5.75159 34.3115 5.62573 34.1857 5.62573 34.0303C5.62573 33.8748 5.75152 33.749 5.90698 33.749H27.2807C27.4362 33.749 27.562 33.8748 27.562 34.0303C27.562 34.1857 27.4362 34.3115 27.2807 34.3115Z" fill="#ED7C00"/>
<path d="M31.7805 35.999C31.6251 35.999 31.4993 35.8732 31.4993 35.7177V0.282471C31.4993 0.12701 31.6251 0.0012207 31.7805 0.0012207C31.936 0.0012207 32.0618 0.12701 32.0618 0.282471V35.7178C32.0618 35.7547 32.0545 35.7913 32.0404 35.8254C32.0263 35.8596 32.0055 35.8906 31.9794 35.9167C31.9533 35.9428 31.9223 35.9635 31.8882 35.9776C31.854 35.9917 31.8175 35.999 31.7805 35.999Z" fill="#ED7C00"/>
<path d="M31.7803 35.9988H4.21948C4.06402 35.9988 3.93823 35.873 3.93823 35.7175C3.93823 35.5621 4.06402 35.4363 4.21948 35.4363H31.7803C31.9358 35.4363 32.0615 35.5621 32.0615 35.7175C32.0615 35.873 31.9358 35.9988 31.7803 35.9988Z" fill="#ED7C00"/>
<path d="M4.21948 35.999C4.06402 35.999 3.93823 35.8732 3.93823 35.7177V0.282471C3.93823 0.12701 4.06402 0.0012207 4.21948 0.0012207C4.37487 0.0012207 4.50073 0.12701 4.50073 0.282471V35.7178C4.50075 35.7547 4.49349 35.7913 4.47936 35.8254C4.46523 35.8596 4.44451 35.8906 4.41839 35.9167C4.39227 35.9428 4.36126 35.9635 4.32713 35.9776C4.293 35.9917 4.25642 35.999 4.21948 35.999Z" fill="#ED7C00"/>
<path d="M31.7803 0.563477H4.21948C4.06402 0.563477 3.93823 0.437687 3.93823 0.282227C3.93823 0.126766 4.06402 0.000976562 4.21948 0.000976562H31.7803C31.9358 0.000976562 32.0615 0.126766 32.0615 0.282227C32.0615 0.437687 31.9358 0.563477 31.7803 0.563477Z" fill="#ED7C00"/>
<path d="M27.8432 18.5625H8.15649C8.0011 18.5625 7.87524 18.4367 7.87524 18.2812C7.87524 18.1258 8.00103 18 8.15649 18H27.8432C27.9986 18 28.1244 18.1258 28.1244 18.2812C28.1244 18.4367 27.9986 18.5625 27.8432 18.5625Z" fill="#ED7C00"/>
</svg>
