<svg width="36" height="36" viewBox="0 0 36 36" fill="none" xmlns="http://www.w3.org/2000/svg">
<g clip-path="url(#clip0_1_17598)">
<path d="M15 9C12.66 9 10.8 10.86 10.8 13.2V21.6H12V13.2C12 11.52 13.32 10.2 15 10.2H17.4V13.2H18.6V10.2H21C22.68 10.2 24 11.52 24 13.2V21.6H25.2V13.2C25.2 10.86 23.34 9 21 9H15Z" fill="#ED7C00"/>
<path d="M17.4 8.4001H18.6C20.28 8.4001 21.6 7.0801 21.6 5.4001V3.6001C21.6 1.9201 20.28 0.600098 18.6 0.600098H17.4C15.72 0.600098 14.4 1.9201 14.4 3.6001V5.4001C14.4 7.0801 15.72 8.4001 17.4 8.4001ZM15.6 3.6001C15.6 2.5801 16.38 1.8001 17.4 1.8001H18.6C19.62 1.8001 20.4 2.5801 20.4 3.6001V5.4001C20.4 6.4201 19.62 7.2001 18.6 7.2001H17.4C16.38 7.2001 15.6 6.4201 15.6 5.4001V3.6001Z" fill="#ED7C00"/>
<path d="M18.6 19.2002H17.4V20.4002H18.6V19.2002Z" fill="#ED7C00"/>
<path d="M18.6 16.8H17.4V18H18.6V16.8Z" fill="#ED7C00"/>
<path d="M18.6 14.4001H17.4V15.6001H18.6V14.4001Z" fill="#ED7C00"/>
<path d="M28.8 32.4C28.8 31.38 28.02 30.6 27 30.6H25.8V27.6C25.8 27.24 25.56 27 25.2 27H22.2V13.8H21V27H18.6V22.2H17.4V27H15V13.8H13.8V27H10.8C10.44 27 10.2 27.24 10.2 27.6V30.6H9C7.98 30.6 7.2 31.38 7.2 32.4V34.2001H0V35.4H7.8H28.2H36V34.2001H28.8V32.4ZM8.4 34.2001V32.4C8.4 32.04 8.64 31.8 9 31.8H10.8H19.8V30.6H11.4V28.2H24.6V31.2001C24.6 31.56 24.84 31.8 25.2 31.8H27C27.36 31.8 27.6 32.04 27.6 32.4V34.2001H8.4Z" fill="#ED7C00"/>
<path d="M1.98 6.41998L2.82 5.57998L2.04 4.79998H12.6V3.59998H2.04L2.82 2.81998L1.98 1.97998L0.18 3.77998C-0.06 4.01998 -0.06 4.37998 0.18 4.61998L1.98 6.41998Z" fill="#ED7C00"/>
<path d="M1.98 19.0201L2.82 18.1801L2.04 17.4001H9V16.2001H2.04L2.82 15.4201L1.98 14.5801L0.18 16.3801C-0.06 16.6201 -0.06 16.9801 0.18 17.2201L1.98 19.0201Z" fill="#ED7C00"/>
<path d="M33.18 11.58L34.02 12.42L35.82 10.62C36.06 10.38 36.06 10.02 35.82 9.77998L34.02 7.97998L33.18 8.81998L33.96 9.59998H27V10.8H33.96L33.18 11.58Z" fill="#ED7C00"/>
<path d="M34.02 22.3801L33.18 23.2201L33.96 24.0001H24.6V25.2001H33.96L33.18 25.9801L34.02 26.8201L35.82 25.0201C36.06 24.7801 36.06 24.4201 35.82 24.1801L34.02 22.3801Z" fill="#ED7C00"/>
<path d="M28.2 16.2002H27V17.4002H28.2V16.2002Z" fill="#ED7C00"/>
<path d="M30.6 16.2002H29.4V17.4002H30.6V16.2002Z" fill="#ED7C00"/>
<path d="M33 16.2002H31.8V17.4002H33V16.2002Z" fill="#ED7C00"/>
<path d="M35.4 16.2002H34.2V17.4002H35.4V16.2002Z" fill="#ED7C00"/>
<path d="M1.79998 22.2002H0.599976V23.4002H1.79998V22.2002Z" fill="#ED7C00"/>
<path d="M4.2 22.2002H3V23.4002H4.2V22.2002Z" fill="#ED7C00"/>
<path d="M6.60002 22.2002H5.40002V23.4002H6.60002V22.2002Z" fill="#ED7C00"/>
<path d="M9.00005 22.2002H7.80005V23.4002H9.00005V22.2002Z" fill="#ED7C00"/>
<path d="M1.79998 9H0.599976V10.2H1.79998V9Z" fill="#ED7C00"/>
<path d="M4.2 9H3V10.2H4.2V9Z" fill="#ED7C00"/>
<path d="M6.60002 9H5.40002V10.2H6.60002V9Z" fill="#ED7C00"/>
<path d="M9.00005 9H7.80005V10.2H9.00005V9Z" fill="#ED7C00"/>
</g>
<defs>
<clipPath id="clip0_1_17598">
<rect width="36" height="36" fill="white"/>
</clipPath>
</defs>
</svg>
