<svg width="36" height="36" viewBox="0 0 36 36" fill="none" xmlns="http://www.w3.org/2000/svg">
<g clip-path="url(#clip0_1_17589)">
<path d="M6.76526 20.9165C8.33988 18.4064 12.699 14.2841 17.5384 17.8761H24.5052C24.9875 17.8298 25.7856 17.9321 26.279 18.4771M6.76526 20.9165L13.6301 28.0227M6.76526 20.9165C6.26682 20.6337 5.00486 20.3226 3.94454 21.3408L0.75 24.7701L9.04222 33.75L13.2223 29.8257C13.4942 29.6018 13.9564 28.9277 13.6301 28.0227M18.7278 22.1186H24.913C25.5134 22.0243 26.7142 21.4186 26.7142 19.7499C26.7142 19.1741 26.5389 18.7642 26.279 18.4771M26.279 18.4771L31.574 13.4215C32.1404 12.9148 33.5654 12.2053 34.7345 13.4215C35.9036 14.6377 34.8138 16.4266 34.1228 17.169L28.0396 25.159C27.4958 25.5479 26.218 26.3257 25.4567 26.3257H17.5384C16.3715 26.2668 13.9564 26.5237 13.6301 28.0227" stroke="#ED7C00" stroke-width="1.5"/>
<path d="M28 5.01923C27.2008 4.38693 25.7935 3.94712 24.5 3.91959M24.5 3.91959C22.961 3.88682 21.5833 4.43767 21.5833 5.94232C21.5833 8.71154 28 7.32692 28 10.0962C28 11.6755 26.2922 12.3542 24.5 12.3032M24.5 3.91959V2.25M21 11.0192C21.7519 11.8124 23.1499 12.2648 24.5 12.3032M24.5 12.3032V14.25" stroke="#ED7C00" stroke-width="1.5" stroke-linecap="round" stroke-linejoin="round"/>
</g>
<defs>
<clipPath id="clip0_1_17589">
<rect width="36" height="36" fill="white"/>
</clipPath>
</defs>
</svg>
