<svg width="36" height="36" viewBox="0 0 36 36" fill="none" xmlns="http://www.w3.org/2000/svg">
<path d="M34.524 7.95593C34.488 7.84793 34.38 7.77593 34.272 7.77593L28.152 6.83993C28.008 6.80393 27.9 6.87593 27.792 6.98393C27.72 7.09193 27.684 7.23593 27.756 7.34393L28.728 9.32393L20.808 13.7519C20.376 14.0039 19.872 14.0399 19.368 13.8959C18.9 13.7519 18.504 13.4279 18.252 12.9599L16.776 10.0439C16.236 8.96393 15.3 8.17193 14.148 7.81193C12.996 7.45193 11.808 7.55993 10.728 8.09993L2.304 12.5639C1.62 12.9239 1.296 13.7159 1.512 14.4719C1.656 14.9399 1.98 15.3359 2.448 15.5519C2.916 15.7319 3.42 15.7319 3.852 15.4799L11.736 11.1599C12.168 10.9079 12.672 10.8719 13.14 11.0159C13.608 11.1599 14.004 11.4839 14.22 11.9519L15.66 14.8319C16.2 15.9119 17.136 16.7399 18.324 17.0999C18.756 17.2439 19.188 17.3159 19.656 17.3159C20.376 17.3159 21.132 17.1359 21.78 16.7759L30.096 12.1679L30.852 13.6799C30.924 13.7879 31.032 13.8599 31.176 13.8959C31.284 13.8959 31.428 13.8239 31.5 13.7159L34.524 8.35193C34.56 8.20793 34.56 8.06393 34.524 7.95593ZM31.212 12.7439L30.6 11.4839C30.564 11.4119 30.492 11.3399 30.384 11.3039C30.276 11.2679 30.204 11.2679 30.096 11.3399L21.456 16.1279C20.556 16.6319 19.548 16.7399 18.576 16.4159C17.604 16.1279 16.812 15.4439 16.344 14.5079L14.904 11.6279C14.58 11.0159 14.04 10.5479 13.392 10.3319C13.14 10.2599 12.888 10.2239 12.636 10.2239C12.204 10.2239 11.808 10.3319 11.412 10.5479L3.528 14.8679C3.276 15.0119 2.988 15.0119 2.736 14.9039C2.484 14.7959 2.268 14.5799 2.196 14.2919C2.088 13.8599 2.268 13.4279 2.664 13.2119L11.16 8.71193C12.06 8.24393 13.068 8.17193 14.004 8.45993C14.976 8.78393 15.732 9.43193 16.2 10.3319L17.676 13.2479C18 13.8959 18.54 14.3279 19.224 14.5439C19.908 14.7599 20.592 14.6879 21.204 14.3279L29.412 9.75593C29.592 9.64793 29.628 9.46793 29.556 9.28793L28.728 7.63193L33.624 8.38793L31.212 12.7439Z" fill="#ED7C00"/>
<path d="M6.11994 16.5598H1.79994C1.58394 16.5598 1.43994 16.7038 1.43994 16.9198V28.7998C1.43994 29.0158 1.58394 29.1598 1.79994 29.1598H6.11994C6.33594 29.1598 6.47994 29.0158 6.47994 28.7998V16.9198C6.47994 16.7038 6.33594 16.5598 6.11994 16.5598ZM5.75994 28.4398H2.15994V17.2798H5.75994V28.4398Z" fill="#ED7C00"/>
<path d="M21.9599 18.3599H17.6399C17.4239 18.3599 17.2799 18.5039 17.2799 18.7199V28.7999C17.2799 29.0159 17.4239 29.1599 17.6399 29.1599H21.9599C22.1759 29.1599 22.3199 29.0159 22.3199 28.7999V18.7199C22.3199 18.5039 22.1759 18.3599 21.9599 18.3599ZM21.5999 28.4399H17.9999V19.0799H21.5999V28.4399Z" fill="#ED7C00"/>
<path d="M14.04 12.96H9.71999C9.50399 12.96 9.35999 13.104 9.35999 13.32V28.8C9.35999 29.016 9.50399 29.16 9.71999 29.16H14.04C14.256 29.16 14.4 29.016 14.4 28.8V13.32C14.4 13.104 14.256 12.96 14.04 12.96ZM13.68 28.44H10.08V13.68H13.68V28.44Z" fill="#ED7C00"/>
<path d="M29.88 15.8398H25.56C25.344 15.8398 25.2 15.9838 25.2 16.1998V28.7998C25.2 29.0158 25.344 29.1598 25.56 29.1598H29.88C30.096 29.1598 30.24 29.0158 30.24 28.7998V16.1998C30.24 15.9838 30.096 15.8398 29.88 15.8398ZM29.52 28.4398H25.92V16.5598H29.52V28.4398Z" fill="#ED7C00"/>
</svg>
