<svg width="35" height="35" viewBox="0 0 35 35" fill="none" xmlns="http://www.w3.org/2000/svg">
<path d="M9.1145 30.9893H30.2603" stroke="#ED7C00" stroke-width="0.729167" stroke-linecap="round" stroke-linejoin="round"/>
<path d="M25.1562 34.6348H32.4479" stroke="#ED7C00" stroke-width="0.729167" stroke-linecap="round" stroke-linejoin="round"/>
<path d="M6.14096 27.3433H30.9895V34.6349H6.11836C5.1725 34.6349 4.26538 34.2592 3.59656 33.5904C2.92774 32.9215 2.552 32.0144 2.552 31.0686V30.9322C2.552 29.9804 2.93012 29.0675 3.60318 28.3944C4.27624 27.7214 5.18911 27.3433 6.14096 27.3433Z" stroke="#ED7C00" stroke-width="0.729167" stroke-linecap="round" stroke-linejoin="round"/>
<path d="M6.19786 27.3434H31.7187C31.9121 27.3434 32.0975 27.2666 32.2343 27.1299C32.371 26.9931 32.4479 26.8076 32.4479 26.6143V1.32311C32.4479 0.920614 32.1212 0.364258 31.7187 0.364258H7.46077C6.13201 0.417473 4.87626 0.986224 3.95985 1.94987C3.04343 2.91353 2.53844 4.19627 2.55202 5.52603V30.9893" stroke="#ED7C00" stroke-width="0.729167" stroke-linecap="round" stroke-linejoin="round"/>
<path d="M7.65625 1.09326V27.3433" stroke="#ED7C00" stroke-width="0.729167" stroke-linecap="round" stroke-linejoin="round"/>
<path d="M25.2773 9.90412C25.2773 10.5225 23.7518 10.8324 23.5273 11.3698C23.2961 11.9268 24.1471 13.2226 23.7278 13.6426C23.3085 14.0626 22.0113 13.2116 21.455 13.442C20.9176 13.6652 20.6077 15.192 19.9893 15.192C19.371 15.192 19.0619 13.6666 18.5245 13.442C17.9674 13.2116 16.6709 14.0618 16.2517 13.6426C15.8324 13.2233 16.6826 11.9268 16.4514 11.3698C16.2327 10.8324 14.7014 10.5225 14.7014 9.90412C14.7014 9.28579 16.2276 8.97663 16.4514 8.43923C16.6826 7.88215 15.8317 6.58569 16.2517 6.16642C16.6717 5.74715 17.9674 6.59736 18.5245 6.36621C19.0619 6.14382 19.3717 4.61621 19.9893 4.61621C20.6069 4.61621 20.9176 6.14236 21.455 6.36621C22.0121 6.59736 23.3078 5.74642 23.7278 6.16642C24.1478 6.58642 23.2961 7.88215 23.5273 8.43923C23.7518 8.97663 25.2773 9.28943 25.2773 9.90412Z" stroke="#ED7C00" stroke-width="0.729167" stroke-linecap="round" stroke-linejoin="round"/>
<path d="M15.677 18.5933H25.1562" stroke="#ED7C00" stroke-width="0.729167" stroke-linecap="round" stroke-linejoin="round"/>
<path d="M15.677 21.5098H25.1562" stroke="#ED7C00" stroke-width="0.729167" stroke-linecap="round" stroke-linejoin="round"/>
</svg>
