<svg width="36" height="36" viewBox="0 0 36 36" fill="none" xmlns="http://www.w3.org/2000/svg">
<path d="M22.0787 5.33325H14.0879C13.3502 5.33325 12.6666 5.8466 12.6666 6.58031V11.9198C12.6666 12.6533 13.3502 13.3333 14.0879 13.3333H17.3333V16.6666H18.6666V13.3333H22.0787C22.8164 13.3333 23.3332 12.6533 23.3332 11.9198V6.58031C23.3333 5.8466 22.8164 5.33325 22.0787 5.33325ZM22.0267 11.9166L14 11.9198V6.58031L14.0462 6.58327L22.0624 6.58031L22.0267 11.9166Z" fill="#ED7C00"/>
<path d="M34.7455 22.6668H32.0001V19.2501C32.0001 18.8819 31.7849 18.6667 31.4167 18.6667H5.41666C5.04851 18.6667 4.66664 18.8819 4.66664 19.2501V22.6668H1.42123C0.683578 22.6668 0 23.1801 0 23.9138V29.2534C0 29.9868 0.683578 30.6668 1.42123 30.6668H9.4121C10.1497 30.6668 10.6667 29.9868 10.6667 29.2534V23.9138C10.6667 23.1801 10.1497 22.6668 9.4121 22.6668H5.99998V20.0001H17.3333V22.6668H14.0879C13.3502 22.6668 12.6667 23.1801 12.6667 23.9138V29.2534C12.6667 29.9868 13.3502 30.6668 14.0879 30.6668H22.0788C22.8164 30.6668 23.3333 29.9868 23.3333 29.2534V23.9138C23.3333 23.1801 22.8163 22.6668 22.0788 22.6668H18.6666V20.0001H30.6667V22.6668H26.7545C26.0169 22.6668 25.3333 23.1801 25.3333 23.9138V29.2534C25.3333 29.9868 26.0169 30.6668 26.7545 30.6668H34.7454C35.4831 30.6668 35.9999 29.9868 35.9999 29.2534V23.9138C36 23.1801 35.4831 22.6668 34.7455 22.6668ZM9.41667 23.9138L9.37048 29.2501L1.33334 29.2534V23.9138L1.37953 23.9168L5.38854 23.9153C5.39107 23.9154 5.40359 23.9168 5.40619 23.9168C5.40879 23.9168 5.4161 23.9154 5.41863 23.9153L9.41667 23.9138ZM22.0833 23.9138L22.0371 29.2501L14 29.2534V23.9138L14.0462 23.9168L22.0833 23.9138ZM34.7038 29.2501L26.6666 29.2534V23.9138L26.7128 23.9168L31.3874 23.9151C31.3904 23.9152 31.4032 23.9168 31.4062 23.9168C31.4092 23.9168 31.4169 23.9152 31.4198 23.9151L34.7265 23.9139L34.7038 29.2501Z" fill="#ED7C00"/>
</svg>
