<svg width="36" height="36" viewBox="0 0 36 36" fill="none" xmlns="http://www.w3.org/2000/svg">
<path d="M27.9525 1.24406H20.4882C20.4812 1.24406 20.4745 1.24484 20.4676 1.24507C19.9076 0.490238 19.0101 0 18 0C16.99 0 16.0925 0.490238 15.5324 1.24507C15.5256 1.24484 15.5188 1.24406 15.5119 1.24406H8.04755C6.0111 1.24406 4.35425 2.90092 4.35425 4.93737V32.3067C4.35425 34.3431 6.0111 36 8.04755 36H27.9525C29.989 36 31.6458 34.3431 31.6458 32.3067V4.93737C31.6458 2.90092 29.989 1.24406 27.9525 1.24406ZM18 1.16631C19.0505 1.16631 19.905 2.0209 19.905 3.07127V3.6933C19.905 4.01536 20.166 4.27646 20.4882 4.27646H22.9763C23.3407 4.27646 23.6372 4.57293 23.6372 4.93737C23.6372 5.3018 23.3407 5.59827 22.9763 5.59827H13.0238C12.6594 5.59827 12.3629 5.3018 12.3629 4.93737C12.3629 4.57293 12.6594 4.27646 13.0238 4.27646H15.5119C15.8341 4.27646 16.0951 4.01536 16.0951 3.6933V3.07127C16.0951 2.0209 16.9496 1.16631 18 1.16631ZM13.0238 6.76458H22.9763C23.9838 6.76458 24.8035 5.9449 24.8035 4.93737C24.8035 4.9243 24.8028 4.91147 24.8025 4.89849H27.9525C27.9739 4.89849 27.9914 4.9159 27.9914 4.93737V32.3067C27.9914 32.3282 27.9739 32.3456 27.9525 32.3456H8.04755C8.02617 32.3456 8.00868 32.3282 8.00868 32.3067V4.93737C8.00868 4.9159 8.02617 4.89849 8.04755 4.89849H11.1976C11.1973 4.91147 11.1966 4.9243 11.1966 4.93737C11.1966 5.9449 12.0163 6.76458 13.0238 6.76458ZM30.4795 32.3067C30.4795 33.7 29.3459 34.8337 27.9525 34.8337H8.04755C6.65413 34.8337 5.52055 33.7 5.52055 32.3067V4.93737C5.52055 3.54402 6.65413 2.41037 8.04755 2.41037H15.0012C14.9542 2.62341 14.9288 2.84439 14.9288 3.07127V3.11015H13.0238C12.4777 3.11015 11.9872 3.35127 11.6521 3.73218H8.04755C7.38299 3.73218 6.84237 4.2728 6.84237 4.93737V32.3067C6.84237 32.9713 7.38299 33.5119 8.04755 33.5119H27.9525C28.6171 33.5119 29.1577 32.9713 29.1577 32.3067V4.93737C29.1577 4.2728 28.6171 3.73218 27.9525 3.73218H24.3479C24.0128 3.35127 23.5223 3.11015 22.9763 3.11015H21.0713V3.07127C21.0713 2.84439 21.0458 2.62341 20.9989 2.41037H27.9525C29.3459 2.41037 30.4795 3.54402 30.4795 4.93737V32.3067Z" fill="#ED7C00"/>
<path d="M18.0001 4.8984C18.3223 4.8984 18.5833 4.63731 18.5833 4.31525V3.07119C18.5833 2.74913 18.3223 2.48804 18.0001 2.48804C17.678 2.48804 17.417 2.74913 17.417 3.07119V4.31525C17.417 4.63731 17.678 4.8984 18.0001 4.8984Z" fill="#ED7C00"/>
<path d="M17.3781 13.607H24.8424C25.1646 13.607 25.4256 13.3459 25.4256 13.0238C25.4256 12.7018 25.1646 12.4407 24.8424 12.4407H17.3781C17.0559 12.4407 16.7949 12.7018 16.7949 13.0238C16.7949 13.3459 17.0559 13.607 17.3781 13.607Z" fill="#ED7C00"/>
<path d="M10.7453 12.6114C10.5175 12.8391 10.5175 13.2084 10.7453 13.4361L11.9893 14.6801C12.1032 14.7939 12.2525 14.8509 12.4017 14.8509C12.5509 14.8509 12.7002 14.794 12.8141 14.6801L15.3023 12.192C15.53 11.9643 15.53 11.595 15.3023 11.3673C15.0744 11.1396 14.7053 11.1396 14.4775 11.3673L12.4017 13.4431L11.5701 12.6114C11.3423 12.3837 10.9731 12.3837 10.7453 12.6114Z" fill="#ED7C00"/>
<path d="M17.3781 19.8272H24.8424C25.1646 19.8272 25.4256 19.5661 25.4256 19.244C25.4256 18.922 25.1646 18.6609 24.8424 18.6609H17.3781C17.0559 18.6609 16.7949 18.922 16.7949 19.244C16.7949 19.5661 17.0559 19.8272 17.3781 19.8272Z" fill="#ED7C00"/>
<path d="M14.4774 17.5876L12.4017 19.6633L11.57 18.8316C11.3422 18.6039 10.973 18.6039 10.7453 18.8316C10.5175 19.0594 10.5175 19.4286 10.7453 19.6563L11.9893 20.9003C12.1032 21.0142 12.2525 21.0712 12.4017 21.0712C12.5509 21.0712 12.7002 21.0142 12.8141 20.9003L15.3023 18.4122C15.53 18.1845 15.53 17.8152 15.3023 17.5876C15.0744 17.3598 14.7052 17.3598 14.4774 17.5876Z" fill="#ED7C00"/>
<path d="M17.3781 26.0474H24.8424C25.1646 26.0474 25.4256 25.7863 25.4256 25.4643C25.4256 25.1422 25.1646 24.8811 24.8424 24.8811H17.3781C17.0559 24.8811 16.7949 25.1422 16.7949 25.4643C16.7949 25.7863 17.0559 26.0474 17.3781 26.0474Z" fill="#ED7C00"/>
<path d="M14.4774 23.808L12.4017 25.8838L11.57 25.0521C11.3422 24.8243 10.973 24.8243 10.7453 25.0521C10.5175 25.2798 10.5175 25.6491 10.7453 25.8767L11.9893 27.1208C12.1032 27.2346 12.2525 27.2916 12.4017 27.2916C12.5509 27.2916 12.7002 27.2347 12.8141 27.1208L15.3023 24.6327C15.53 24.4049 15.53 24.0357 15.3023 23.808C15.0744 23.5803 14.7052 23.5803 14.4774 23.808Z" fill="#ED7C00"/>
</svg>
