<svg width="36" height="36" viewBox="0 0 36 36" fill="none" xmlns="http://www.w3.org/2000/svg">
<g clip-path="url(#clip0_1_17553)">
<path d="M34.056 16.5015C33.3427 8.81997 27.1788 2.65497 19.4996 1.94172C19.3556 1.24535 18.738 0.719971 18 0.719971C17.2552 0.719971 16.6353 1.25435 16.4992 1.96085C11.8867 2.38835 7.73435 4.73285 4.99722 8.45547C4.84085 8.40147 4.67547 8.36547 4.49997 8.36547C3.65622 8.36547 2.96997 9.05172 2.96997 9.89547C2.96997 10.3387 3.16235 10.7347 3.46385 11.0148C2.40072 13.2187 1.84497 15.5643 1.84497 18C1.84497 21.1353 2.74947 24.1571 4.44822 26.775C4.2311 27.0393 4.09497 27.3723 4.09497 27.7402C4.09497 28.584 4.78122 29.2702 5.62497 29.2702C5.87247 29.2702 6.10197 29.2061 6.30897 29.1015C9.35772 32.31 13.5922 34.155 18 34.155C18.2238 34.155 18.405 33.9738 18.405 33.75V23.9692C19.0518 23.7903 19.53 23.2031 19.53 22.5C19.53 21.7968 19.0507 21.2096 18.405 21.0307V3.7181C18.8426 3.59772 19.2003 3.29172 19.3871 2.8856C23.5203 4.09722 26.595 10.4703 26.595 18H27.4061C27.4061 11.3782 25.0616 5.58447 21.6585 3.12072C27.882 4.65972 32.6362 10.035 33.2482 16.5622C32.652 16.7715 32.22 17.334 32.22 18.0011C32.22 18.8448 32.9062 19.5311 33.75 19.5311C34.5937 19.5311 35.28 18.8448 35.28 18.0011C35.28 17.2608 34.7535 16.6432 34.056 16.5015ZM16.47 22.5C16.47 23.2031 16.9481 23.7903 17.595 23.9692V33.309C13.3616 32.949 9.86397 27.027 9.46122 19.4512C10.0788 19.2543 10.53 18.6817 10.53 18C10.53 17.3171 10.0777 16.7456 9.4601 16.5487C9.82797 9.62434 12.78 4.01172 16.6128 2.8856C16.7996 3.2906 17.1585 3.59772 17.595 3.7181V21.0307C16.9481 21.2096 16.47 21.7968 16.47 22.5ZM8.99997 17.28C9.3971 17.28 9.71997 17.6028 9.71997 18C9.71997 18.3971 9.3971 18.72 8.99997 18.72C8.60285 18.72 8.27997 18.3971 8.27997 18C8.27997 17.6028 8.60285 17.28 8.99997 17.28ZM4.49997 9.17547C4.8971 9.17547 5.21997 9.49834 5.21997 9.89547C5.21997 10.2926 4.8971 10.6155 4.49997 10.6155C4.10285 10.6155 3.77997 10.2926 3.77997 9.89547C3.77997 9.49834 4.10285 9.17547 4.49997 9.17547ZM4.90497 27.7402C4.90497 27.3431 5.22785 27.0202 5.62497 27.0202C6.0221 27.0202 6.34497 27.3431 6.34497 27.7402C6.34497 28.1373 6.0221 28.4602 5.62497 28.4602C5.22785 28.4602 4.90497 28.1373 4.90497 27.7402ZM6.91197 28.5603C7.06385 28.323 7.15497 28.0428 7.15497 27.7402C7.15497 26.8965 6.46872 26.2102 5.62497 26.2102C5.44272 26.2102 5.2706 26.2473 5.10972 26.3058C3.50772 23.8263 2.65497 20.9655 2.65497 18C2.65497 15.696 3.17922 13.4775 4.1816 11.3906C4.28397 11.412 4.39085 11.4243 4.49997 11.4243C5.34372 11.4243 6.02997 10.7381 6.02997 9.89435C6.02997 9.51972 5.88935 9.1811 5.66547 8.91447C7.80635 6.01197 10.8562 4.00272 14.3111 3.15335C11.1993 5.4371 8.9696 10.5176 8.65122 16.5138C7.9751 16.6725 7.46997 17.2766 7.46997 18C7.46997 18.7233 7.97622 19.3286 8.65122 19.4872C8.97522 25.5712 11.2668 30.6517 14.3943 32.904C11.5638 32.211 8.95947 30.7091 6.91197 28.5603ZM18.72 22.5C18.72 22.8971 18.3971 23.22 18 23.22C17.6028 23.22 17.28 22.8971 17.28 22.5C17.28 22.1028 17.6028 21.78 18 21.78C18.3971 21.78 18.72 22.1028 18.72 22.5ZM18 2.96997C17.6028 2.96997 17.28 2.6471 17.28 2.24997C17.28 1.85285 17.6028 1.52997 18 1.52997C18.3971 1.52997 18.72 1.85285 18.72 2.24997C18.72 2.6471 18.3971 2.96997 18 2.96997ZM33.75 18.72C33.3528 18.72 33.03 18.3971 33.03 18C33.03 17.6028 33.3528 17.28 33.75 17.28C34.1471 17.28 34.47 17.6028 34.47 18C34.47 18.3971 34.1471 18.72 33.75 18.72ZM20.97 31.905H24.0311V27.72H20.97V31.905ZM21.78 28.53H23.2188V31.0938H21.78V28.53ZM25.47 31.905H28.5311V24.345H25.47V31.905ZM26.28 25.155H27.7188V31.0938H26.28V25.155ZM29.97 31.905H33.0311V20.97H29.97V31.905ZM30.78 21.78H32.2188V31.0938H30.78V21.78Z" fill="#ED7C00"/>
</g>
<defs>
<clipPath id="clip0_1_17553">
<rect width="36" height="36" fill="white"/>
</clipPath>
</defs>
</svg>
