<svg width="36" height="36" viewBox="0 0 36 36" fill="none" xmlns="http://www.w3.org/2000/svg">
<path d="M22.32 7.19995H13.68C13.5969 7.20181 13.5178 7.2359 13.4594 7.29501C13.4009 7.35412 13.3677 7.43363 13.3668 7.51675V8.56435C13.3677 8.64747 13.4009 8.72698 13.4594 8.78609C13.5178 8.8452 13.5969 8.87929 13.68 8.88115H22.32C22.4028 8.87841 22.4815 8.84404 22.5397 8.78512C22.598 8.72619 22.6314 8.64719 22.6332 8.56435V7.51675C22.6314 7.43391 22.598 7.35491 22.5397 7.29598C22.4815 7.23706 22.4028 7.20269 22.32 7.19995Z" fill="#ED7C00"/>
<path d="M15.5844 9.71997H13.68C13.5969 9.72183 13.5178 9.75592 13.4594 9.81503C13.4009 9.87414 13.3677 9.95365 13.3668 10.0368V10.6632C13.3677 10.7463 13.4009 10.8258 13.4594 10.8849C13.5178 10.944 13.5969 10.9781 13.68 10.98H15.57C15.6535 10.9781 15.733 10.9442 15.792 10.8852C15.851 10.8261 15.885 10.7466 15.8868 10.6632V10.0368C15.8852 9.9557 15.8532 9.87819 15.7973 9.81954C15.7413 9.76089 15.6653 9.72536 15.5844 9.71997Z" fill="#ED7C00"/>
<path d="M18.9432 9.71997H17.0568C16.9733 9.72181 16.8938 9.75577 16.8348 9.81479C16.7758 9.87381 16.7418 9.95333 16.74 10.0368V10.6632C16.7418 10.7466 16.7758 10.8261 16.8348 10.8852C16.8938 10.9442 16.9733 10.9781 17.0568 10.98H18.9432C19.0266 10.9781 19.1062 10.9442 19.1652 10.8852C19.2242 10.8261 19.2582 10.7466 19.26 10.6632V10.0368C19.2582 9.95333 19.2242 9.87381 19.1652 9.81479C19.1062 9.75577 19.0266 9.72181 18.9432 9.71997Z" fill="#ED7C00"/>
<path d="M22.32 9.71997H20.4156C20.3321 9.72181 20.2526 9.75577 20.1936 9.81479C20.1346 9.87381 20.1006 9.95333 20.0988 10.0368V10.6632C20.1006 10.7466 20.1346 10.8261 20.1936 10.8852C20.2526 10.9442 20.3321 10.9781 20.4156 10.98H22.32C22.4028 10.9772 22.4814 10.9429 22.5396 10.8839C22.5979 10.825 22.6314 10.746 22.6332 10.6632V10.0368C22.6314 9.95393 22.5979 9.87493 22.5396 9.816C22.4814 9.75708 22.4028 9.72271 22.32 9.71997Z" fill="#ED7C00"/>
<path d="M15.5844 11.8188H13.68C13.5969 11.8207 13.5178 11.8548 13.4594 11.9139C13.4009 11.973 13.3677 12.0525 13.3668 12.1356V12.7656C13.3687 12.8481 13.4022 12.9267 13.4606 12.9851C13.5189 13.0434 13.5975 13.077 13.68 13.0788H15.57C15.6529 13.0771 15.7319 13.0436 15.7908 12.9853C15.8497 12.9271 15.8841 12.8485 15.8868 12.7656V12.1356C15.8852 12.0546 15.8532 11.9771 15.7973 11.9184C15.7413 11.8598 15.6653 11.8242 15.5844 11.8188Z" fill="#ED7C00"/>
<path d="M18.9432 11.8188H17.0568C16.9733 11.8207 16.8938 11.8546 16.8348 11.9137C16.7758 11.9727 16.7418 12.0522 16.74 12.1356V12.7656C16.7427 12.8485 16.7771 12.9271 16.836 12.9853C16.8949 13.0436 16.974 13.0771 17.0568 13.0788H18.9432C19.026 13.0771 19.105 13.0436 19.164 12.9853C19.2229 12.9271 19.2572 12.8485 19.26 12.7656V12.1356C19.2582 12.0522 19.2242 11.9727 19.1652 11.9137C19.1062 11.8546 19.0266 11.8207 18.9432 11.8188Z" fill="#ED7C00"/>
<path d="M22.32 11.8188H20.4156C20.3321 11.8207 20.2526 11.8546 20.1936 11.9137C20.1346 11.9727 20.1006 12.0522 20.0988 12.1356V12.7656C20.1015 12.8485 20.1359 12.9271 20.1948 12.9853C20.2537 13.0436 20.3327 13.0771 20.4156 13.0788H22.32C22.4022 13.0762 22.4803 13.0423 22.5384 12.9841C22.5966 12.926 22.6305 12.8479 22.6332 12.7656V12.1356C22.6314 12.0528 22.5979 11.9738 22.5396 11.9149C22.4814 11.856 22.4028 11.8216 22.32 11.8188Z" fill="#ED7C00"/>
<path d="M15.5844 13.9211H13.68C13.5975 13.923 13.5189 13.9566 13.4606 14.0149C13.4022 14.0733 13.3687 14.1519 13.3668 14.2343V14.8643C13.3677 14.9475 13.4009 15.027 13.4594 15.0861C13.5178 15.1452 13.5969 15.1793 13.68 15.1811H15.57C15.6535 15.1793 15.733 15.1453 15.792 15.0863C15.851 15.0273 15.885 14.9478 15.8868 14.8643V14.2343C15.8843 14.1539 15.852 14.0773 15.7961 14.0194C15.7402 13.9615 15.6647 13.9265 15.5844 13.9211Z" fill="#ED7C00"/>
<path d="M18.9432 13.9211H17.0568C16.974 13.9229 16.8949 13.9564 16.836 14.0147C16.7771 14.0729 16.7427 14.1515 16.74 14.2343V14.8643C16.7418 14.9478 16.7758 15.0273 16.8348 15.0863C16.8938 15.1453 16.9733 15.1793 17.0568 15.1811H18.9432C19.0266 15.1793 19.1062 15.1453 19.1652 15.0863C19.2242 15.0273 19.2582 14.9478 19.26 14.8643V14.2343C19.2572 14.1515 19.2229 14.0729 19.164 14.0147C19.105 13.9564 19.026 13.9229 18.9432 13.9211Z" fill="#ED7C00"/>
<path d="M22.32 13.9211H20.4156C20.3327 13.9229 20.2537 13.9564 20.1948 14.0147C20.1359 14.0729 20.1015 14.1515 20.0988 14.2343V14.8643C20.1006 14.9478 20.1346 15.0273 20.1936 15.0863C20.2526 15.1453 20.3321 15.1793 20.4156 15.1811H22.32C22.4028 15.1784 22.4814 15.144 22.5396 15.0851C22.5979 15.0262 22.6314 14.9472 22.6332 14.8643V14.2343C22.6305 14.1521 22.5966 14.074 22.5384 14.0159C22.4803 13.9577 22.4022 13.9238 22.32 13.9211Z" fill="#ED7C00"/>
<path d="M15.5844 16.02H13.68C13.5969 16.0219 13.5178 16.056 13.4594 16.1151C13.4009 16.1742 13.3677 16.2537 13.3668 16.3368V16.9668C13.3687 17.0493 13.4022 17.1279 13.4606 17.1863C13.5189 17.2446 13.5975 17.2782 13.68 17.28H15.57C15.6529 17.2782 15.7319 17.2448 15.7908 17.1865C15.8497 17.1282 15.8841 17.0496 15.8868 16.9668V16.3368C15.8852 16.2558 15.8532 16.1782 15.7973 16.1196C15.7413 16.0609 15.6653 16.0254 15.5844 16.02Z" fill="#ED7C00"/>
<path d="M18.9432 16.02H17.0568C16.9733 16.0219 16.8938 16.0558 16.8348 16.1148C16.7758 16.1739 16.7418 16.2534 16.74 16.3368V16.9668C16.7427 17.0496 16.7771 17.1282 16.836 17.1865C16.8949 17.2448 16.974 17.2782 17.0568 17.28H18.9432C19.026 17.2782 19.105 17.2448 19.164 17.1865C19.2229 17.1282 19.2572 17.0496 19.26 16.9668V16.3368C19.2582 16.2534 19.2242 16.1739 19.1652 16.1148C19.1062 16.0558 19.0266 16.0219 18.9432 16.02Z" fill="#ED7C00"/>
<path d="M22.32 16.02H20.4156C20.3321 16.0219 20.2526 16.0558 20.1936 16.1148C20.1346 16.1739 20.1006 16.2534 20.0988 16.3368V16.9668C20.1015 17.0496 20.1359 17.1282 20.1948 17.1865C20.2537 17.2448 20.3327 17.2782 20.4156 17.28H22.32C22.4022 17.2773 22.4803 17.2435 22.5384 17.1853C22.5966 17.1271 22.6305 17.049 22.6332 16.9668V16.3368C22.6314 16.254 22.5979 16.175 22.5396 16.1161C22.4814 16.0571 22.4028 16.0228 22.32 16.02Z" fill="#ED7C00"/>
<path d="M27.0396 20.682H18.54V18.7668C18.54 18.6236 18.4831 18.4862 18.3818 18.385C18.2806 18.2837 18.1432 18.2268 18 18.2268C17.8568 18.2268 17.7194 18.2837 17.6182 18.385C17.5169 18.4862 17.46 18.6236 17.46 18.7668V20.682H8.96041C8.81719 20.682 8.67984 20.7389 8.57857 20.8402C8.4773 20.9414 8.42041 21.0788 8.42041 21.222V24.0516C8.42041 24.1948 8.4773 24.3322 8.57857 24.4334C8.67984 24.5347 8.81719 24.5916 8.96041 24.5916C9.10363 24.5916 9.24098 24.5347 9.34225 24.4334C9.44352 24.3322 9.50041 24.1948 9.50041 24.0516V21.762H17.46V23.6196C17.46 23.7628 17.5169 23.9002 17.6182 24.0014C17.7194 24.1027 17.8568 24.1596 18 24.1596C18.1432 24.1596 18.2806 24.1027 18.3818 24.0014C18.4831 23.9002 18.54 23.7628 18.54 23.6196V21.762H26.4996V24.0516C26.4996 24.1948 26.5565 24.3322 26.6578 24.4334C26.759 24.5347 26.8964 24.5916 27.0396 24.5916C27.1828 24.5916 27.3202 24.5347 27.4214 24.4334C27.5227 24.3322 27.5796 24.1948 27.5796 24.0516V21.24C27.582 21.1676 27.5698 21.0954 27.5438 21.0278C27.5177 20.9602 27.4783 20.8985 27.428 20.8465C27.3776 20.7944 27.3172 20.753 27.2505 20.7248C27.1838 20.6965 27.1121 20.682 27.0396 20.682Z" fill="#ED7C00"/>
<path d="M8.96035 28.6561C9.93259 28.6561 10.7208 27.8679 10.7208 26.8957C10.7208 25.9234 9.93259 25.1353 8.96035 25.1353C7.98811 25.1353 7.19995 25.9234 7.19995 26.8957C7.19995 27.8679 7.98811 28.6561 8.96035 28.6561Z" fill="#ED7C00"/>
<path d="M17.9352 28.6561C18.9074 28.6561 19.6956 27.8679 19.6956 26.8957C19.6956 25.9234 18.9074 25.1353 17.9352 25.1353C16.963 25.1353 16.1748 25.9234 16.1748 26.8957C16.1748 27.8679 16.963 28.6561 17.9352 28.6561Z" fill="#ED7C00"/>
<path d="M27.0396 28.6561C28.0118 28.6561 28.8 27.8679 28.8 26.8957C28.8 25.9234 28.0118 25.1353 27.0396 25.1353C26.0673 25.1353 25.2792 25.9234 25.2792 26.8957C25.2792 27.8679 26.0673 28.6561 27.0396 28.6561Z" fill="#ED7C00"/>
</svg>
