<svg width="36" height="36" viewBox="0 0 36 36" fill="none" xmlns="http://www.w3.org/2000/svg">
<path d="M31.5 18H28.5C26.8431 18 25.5 19.3431 25.5 21V24C25.5 25.6569 26.8431 27 28.5 27C30.1569 27 31.5 25.6569 31.5 24V18ZM31.5 18C31.5 10.5442 25.4558 4.5 18 4.5C10.5442 4.5 4.5 10.5442 4.5 18M4.5 18V24C4.5 25.6569 5.84315 27 7.5 27C9.15685 27 10.5 25.6569 10.5 24V21C10.5 19.3431 9.15685 18 7.5 18H4.5Z" stroke="#ED7C00" stroke-width="1.5" stroke-linecap="square"/>
<path d="M31.5 21.0002V27.0002C31.5 30.0002 30.5 31.5002 28.5 31.5002C26.5 31.5002 24 31.5002 21 31.5002" stroke="#ED7C00" stroke-width="1.5" stroke-linecap="square"/>
</svg>
