<svg width="36" height="36" viewBox="0 0 36 36" fill="none" xmlns="http://www.w3.org/2000/svg">
<g clip-path="url(#clip0_1_17580)">
<path d="M28.125 35.2799H7.87497V34.4699H14.2391C14.4157 32.6531 15.777 31.2918 17.595 31.1152V13.8746C16.3226 13.6788 15.345 12.5763 15.345 11.2499C15.345 9.92356 16.3226 8.82106 17.595 8.62531V4.87569L7.73547 7.69269C9.99897 8.36206 11.655 10.4602 11.655 12.9374C11.655 15.9524 9.20247 18.4049 6.18747 18.4049C3.17247 18.4049 0.719971 15.9524 0.719971 12.9374C0.719971 10.1486 2.81922 7.84006 5.52035 7.51044L5.5136 7.48569L29.1375 0.735688C29.3051 0.688438 29.4986 0.759313 29.5942 0.910063L35.2192 9.91006C35.2968 10.0349 35.3002 10.1924 35.2293 10.3207C35.1573 10.4501 35.0223 10.5299 34.875 10.5299H23.625C23.4776 10.5299 23.3426 10.4501 23.2717 10.3207C23.2008 10.1924 23.2031 10.0349 23.2818 9.91006L28.3488 1.80331L18.405 4.64506V8.62644C19.6773 8.82219 20.655 9.92469 20.655 11.2511C20.655 12.5774 19.6773 13.6799 18.405 13.8757V31.1163C20.223 31.2929 21.5842 32.6542 21.7608 34.4711H28.125V35.2799ZM15.0547 34.4699H20.9452C20.7585 32.9816 19.5558 31.9049 18 31.9049C16.4452 31.9049 15.2403 32.9816 15.0547 34.4699ZM6.18747 8.27994C3.6191 8.27994 1.52997 10.3691 1.52997 12.9374C1.52997 15.5058 3.6191 17.5949 6.18747 17.5949C8.75585 17.5949 10.845 15.5058 10.845 12.9374C10.845 10.3691 8.75585 8.27994 6.18747 8.27994ZM18 9.40494C16.983 9.40494 16.155 10.2329 16.155 11.2499C16.155 12.2669 16.983 13.0949 18 13.0949C19.017 13.0949 19.845 12.2669 19.845 11.2499C19.845 10.2329 19.017 9.40494 18 9.40494ZM24.3551 9.71994H34.1437L29.25 1.88881L24.3551 9.71994Z" fill="#ED7C00"/>
</g>
<defs>
<clipPath id="clip0_1_17580">
<rect width="36" height="36" fill="white"/>
</clipPath>
</defs>
</svg>
