<svg width="57" height="57" viewBox="0 0 57 57" fill="none" xmlns="http://www.w3.org/2000/svg">
<path fill-rule="evenodd" clip-rule="evenodd" d="M40.88 23.2737C42.3083 21.2726 45.0081 19.1184 48.6835 17.3251C49.6386 16.859 49.2078 15.4145 48.1534 15.5479C40.4309 16.5247 35.4256 19.9069 32.6923 24.9365C31.6757 26.8072 31.037 28.7983 30.6968 30.8309C30.4726 32.171 30.4133 33.1767 30.4133 34.3384C30.4133 39.5293 34.6214 43.7373 39.8123 43.7373C45.0032 43.7373 49.2112 39.5293 49.2112 34.3384C49.2112 29.1475 44.936 24.9365 40.0232 24.9365C40.2823 24.2249 40.3446 24.0238 40.88 23.2737ZM20.2023 23.2737C21.6306 21.2726 24.3304 19.1184 28.0058 17.3251C28.961 16.859 28.5301 15.4145 27.4757 15.5479C19.7533 16.5247 14.7479 19.9069 12.0146 24.9365C10.998 26.8072 10.3593 28.7983 10.0192 30.8309C9.79491 32.171 9.73568 33.1767 9.73568 34.3384C9.73568 39.5293 13.9437 43.7373 19.1346 43.7373C24.3255 43.7373 28.5336 39.5293 28.5336 34.3384C28.5336 29.1475 24.2584 24.9365 19.3455 24.9365C19.6047 24.2249 19.6669 24.0238 20.2023 23.2737Z" fill="#ED7C00"/>
</svg>
