<svg width="134" height="75" viewBox="0 0 134 75" fill="none" xmlns="http://www.w3.org/2000/svg">
<path d="M1 58.5909V42.65H11.8217V45.8831H4.68198V49.3183H10.5643V52.3043H4.68198V58.5909H1ZM66.2452 55.3578V58.5909H77.4486V42.65H66.4472V45.8831H73.7664V48.9814H67.4799V51.9676H73.7664V55.3578H66.2452ZM13.7751 58.5909V42.65H17.4572V58.5909H13.7751ZM24.1928 49.4754V58.5909H20.5108V42.65H23.3847L30.8161 52.0125V42.65H34.4983V58.5909H31.5345L24.1928 49.4754ZM37.5519 58.5909V42.65H41.2338V49.5202L47.0714 42.65H51.2026L45.2303 49.7672L51.6065 58.5909H47.4082L42.8954 52.1697L41.2338 53.8984V58.5909H37.5519ZM64.0001 55.3578V58.5909H52.7967V42.65H63.7979V45.8831H56.4786V48.9814H62.7652V51.9676H56.4786V55.3578H64.0001ZM79.6939 58.5909V42.65H86.4969C87.2601 42.65 87.9599 42.8072 88.5962 43.1215C89.2323 43.4357 89.7786 43.8473 90.2351 44.3564C90.6917 44.8653 91.0509 45.4417 91.3128 46.0852C91.5747 46.7289 91.7057 47.3799 91.7057 48.0385C91.7057 48.742 91.5821 49.4155 91.3353 50.0591C91.0883 50.7028 90.7441 51.2791 90.3024 51.788C89.8608 52.2969 89.3258 52.7009 88.6971 53.0003C88.0686 53.2998 87.3725 53.4495 86.609 53.4495H83.3761V58.5909H79.6939ZM83.3761 50.2386H86.3845C86.8187 50.2386 87.1929 50.0516 87.5072 49.6776C87.8214 49.3033 87.9786 48.757 87.9786 48.0385C87.9786 47.6643 87.9301 47.3425 87.8327 47.073C87.7354 46.8036 87.6045 46.5791 87.4398 46.3995C87.2751 46.2199 87.0882 46.0889 86.8787 46.0065C86.6689 45.9243 86.4593 45.8831 86.2499 45.8831H83.3761V50.2386ZM104.885 55.3578V58.5909H93.6816V42.65H104.683V45.8831H97.3636V48.9814H103.65V51.9676H97.3636V55.3578H104.885ZM107.13 58.5909V42.65H114.315C115.063 42.65 115.755 42.8072 116.392 43.1215C117.028 43.4357 117.578 43.8473 118.042 44.3564C118.506 44.8653 118.869 45.4417 119.131 46.0852C119.393 46.7289 119.524 47.3799 119.524 48.0385C119.524 48.5324 119.464 49.0077 119.344 49.4641C119.224 49.9207 119.052 50.3511 118.827 50.7553C118.603 51.1593 118.33 51.5222 118.008 51.8442C117.686 52.1658 117.323 52.439 116.919 52.6635L120.422 58.5909H116.268L113.215 53.4495H110.812V58.5909H107.13ZM110.812 50.2386H114.18C114.614 50.2386 114.988 50.0329 115.303 49.6213C115.617 49.2097 115.774 48.6821 115.774 48.0385C115.774 47.3799 115.594 46.8561 115.235 46.4668C114.876 46.0777 114.487 45.8831 114.068 45.8831H110.812V50.2386ZM131.737 47.3201C131.693 47.2601 131.535 47.1479 131.266 46.9833C130.996 46.8185 130.66 46.6463 130.256 46.4668C129.852 46.2871 129.41 46.13 128.931 45.9953C128.452 45.8606 127.973 45.7933 127.494 45.7933C126.177 45.7933 125.518 46.2347 125.518 47.118C125.518 47.3873 125.589 47.6118 125.732 47.7915C125.874 47.9711 126.083 48.132 126.36 48.2741C126.637 48.4164 126.985 48.5474 127.404 48.6671C127.823 48.7868 128.31 48.9215 128.863 49.0712C129.627 49.2808 130.315 49.5091 130.929 49.756C131.543 50.003 132.063 50.3099 132.489 50.6765C132.916 51.0432 133.246 51.4885 133.478 52.0125C133.709 52.5363 133.825 53.1651 133.825 53.8984C133.825 54.7964 133.657 55.5561 133.32 56.1772C132.983 56.7986 132.538 57.2999 131.984 57.6816C131.43 58.0633 130.795 58.3402 130.076 58.5123C129.358 58.6844 128.617 58.7705 127.853 58.7705C127.269 58.7705 126.671 58.7255 126.057 58.6359C125.443 58.5459 124.845 58.4152 124.261 58.2429C123.677 58.0707 123.112 57.865 122.566 57.6254C122.019 57.386 121.514 57.109 121.05 56.7948L122.667 53.5842C122.727 53.659 122.921 53.8011 123.251 54.0106C123.58 54.2203 123.988 54.4298 124.474 54.6394C124.961 54.8489 125.503 55.036 126.102 55.2007C126.701 55.3652 127.307 55.4474 127.921 55.4474C129.223 55.4474 129.874 55.051 129.874 54.2577C129.874 53.9583 129.777 53.7114 129.582 53.5167C129.387 53.3223 129.118 53.1463 128.774 52.9891C128.429 52.8319 128.022 52.686 127.55 52.5513C127.079 52.4165 126.566 52.267 126.012 52.1023C125.279 51.8776 124.643 51.6344 124.104 51.3725C123.565 51.1106 123.12 50.8076 122.768 50.4632C122.416 50.1191 122.154 49.7222 121.982 49.2734C121.81 48.8242 121.724 48.3004 121.724 47.7018C121.724 46.8635 121.881 46.1225 122.195 45.4789C122.51 44.8353 122.936 44.2927 123.475 43.8511C124.014 43.4097 124.639 43.0765 125.35 42.8521C126.061 42.6276 126.813 42.5152 127.606 42.5152C128.16 42.5152 128.706 42.5677 129.245 42.6725C129.784 42.7774 130.3 42.9119 130.795 43.0765C131.288 43.2413 131.749 43.4284 132.175 43.6379C132.602 43.8473 132.995 44.0571 133.354 44.2665L131.737 47.3201Z" fill="white"/>
<path fill-rule="evenodd" clip-rule="evenodd" d="M50.0025 9.24205H53.8433C53.8433 16.4036 53.8433 23.5651 53.8433 30.7266H50.0025H38V26.8858H50.0025V21.9047H43.8053V18.0639H50.0025V9.24205Z" fill="#006F63"/>
<path fill-rule="evenodd" clip-rule="evenodd" d="M56.2441 9.0076H62.0053V30.7266H56.2441V9.0076Z" fill="#E97D1E"/>
<path fill-rule="evenodd" clip-rule="evenodd" d="M78.328 0.000393672H72.5669V30.7266H78.328V0.000393672Z" fill="#E97D1E"/>
<path fill-rule="evenodd" clip-rule="evenodd" d="M70.1665 3.60905H64.4053V30.7266H70.1665V3.60905Z" fill="#E97D1E"/>
<path fill-rule="evenodd" clip-rule="evenodd" d="M84.5698 9.24205H80.729C80.729 16.4036 80.729 23.5651 80.729 30.7266H84.5698H96.5723V26.8858H84.5698V21.9047H90.7671V18.0639H84.5698V9.24205Z" fill="#006F63"/>
<path d="M0.192477 66.2085H1.49325L3.04858 69.0211H3.11067L4.666 66.2085H5.96677L3.65395 70.1946V72.5664H2.5053V70.1946L0.192477 66.2085ZM12.2799 69.3874C12.2799 70.0725 12.1516 70.6592 11.895 71.1477C11.6404 71.634 11.2927 72.0066 10.8519 72.2653C10.4131 72.524 9.91534 72.6533 9.35861 72.6533C8.80188 72.6533 8.3031 72.524 7.86226 72.2653C7.4235 72.0045 7.0758 71.6309 6.81916 71.1446C6.5646 70.6561 6.43731 70.0704 6.43731 69.3874C6.43731 68.7024 6.5646 68.1167 6.81916 67.6303C7.0758 67.1419 7.4235 66.7683 7.86226 66.5096C8.3031 66.2509 8.80188 66.1215 9.35861 66.1215C9.91534 66.1215 10.4131 66.2509 10.8519 66.5096C11.2927 66.7683 11.6404 67.1419 11.895 67.6303C12.1516 68.1167 12.2799 68.7024 12.2799 69.3874ZM11.1219 69.3874C11.1219 68.9052 11.0464 68.4985 10.8953 68.1674C10.7463 67.8342 10.5393 67.5827 10.2744 67.413C10.0095 67.2412 9.70424 67.1553 9.35861 67.1553C9.01298 67.1553 8.70771 67.2412 8.4428 67.413C8.17788 67.5827 7.96988 67.8342 7.8188 68.1674C7.66979 68.4985 7.59528 68.9052 7.59528 69.3874C7.59528 69.8697 7.66979 70.2774 7.8188 70.6106C7.96988 70.9417 8.17788 71.1932 8.4428 71.365C8.70771 71.5347 9.01298 71.6195 9.35861 71.6195C9.70424 71.6195 10.0095 71.5347 10.2744 71.365C10.5393 71.1932 10.7463 70.9417 10.8953 70.6106C11.0464 70.2774 11.1219 69.8697 11.1219 69.3874ZM17.5515 66.2085H18.7033V70.3622C18.7033 70.8176 18.5956 71.218 18.3804 71.5637C18.1672 71.9093 17.8671 72.1794 17.4801 72.3739C17.0931 72.5664 16.6409 72.6626 16.1234 72.6626C15.604 72.6626 15.1507 72.5664 14.7637 72.3739C14.3767 72.1794 14.0766 71.9093 13.8634 71.5637C13.6502 71.218 13.5436 70.8176 13.5436 70.3622V66.2085H14.6954V70.266C14.6954 70.5309 14.7533 70.7669 14.8692 70.9738C14.9872 71.1808 15.1528 71.3432 15.366 71.4612C15.5791 71.5771 15.8316 71.6351 16.1234 71.6351C16.4153 71.6351 16.6678 71.5771 16.8809 71.4612C17.0962 71.3432 17.2617 71.1808 17.3776 70.9738C17.4935 70.7669 17.5515 70.5309 17.5515 70.266V66.2085ZM20.13 72.5664V66.2085H22.5142C23.0026 66.2085 23.4124 66.2933 23.7436 66.463C24.0768 66.6327 24.3282 66.8708 24.4979 67.1771C24.6697 67.4813 24.7556 67.8362 24.7556 68.2419C24.7556 68.6496 24.6687 69.0035 24.4948 69.3036C24.3231 69.6016 24.0695 69.8324 23.7342 69.9959C23.399 70.1573 22.9871 70.2381 22.4987 70.2381H20.8005V69.2819H22.3434C22.6291 69.2819 22.8629 69.2426 23.0451 69.1639C23.2272 69.0832 23.3617 68.9663 23.4486 68.8131C23.5376 68.6579 23.5821 68.4675 23.5821 68.2419C23.5821 68.0163 23.5376 67.8238 23.4486 67.6645C23.3596 67.503 23.2241 67.3809 23.042 67.2981C22.8598 67.2133 22.6249 67.1709 22.3372 67.1709H21.2817V72.5664H20.13ZM23.4145 69.6855L24.9884 72.5664H23.7032L22.1572 69.6855H23.4145ZM28.3339 72.5664V66.2085H30.7678C31.2273 66.2085 31.6091 66.2809 31.9134 66.4258C32.2197 66.5686 32.4484 66.7642 32.5995 67.0125C32.7526 67.2609 32.8292 67.5424 32.8292 67.8569C32.8292 68.1156 32.7795 68.3371 32.6802 68.5213C32.5808 68.7034 32.4473 68.8514 32.2797 68.9652C32.1121 69.0791 31.9248 69.1608 31.7178 69.2105V69.2726C31.9434 69.285 32.1597 69.3543 32.3666 69.4806C32.5757 69.6048 32.7464 69.7807 32.8789 70.0083C33.0113 70.236 33.0776 70.5113 33.0776 70.8341C33.0776 71.1632 32.9979 71.4591 32.8385 71.722C32.6791 71.9828 32.4391 72.1887 32.1183 72.3398C31.7975 72.4909 31.3939 72.5664 30.9075 72.5664H28.3339ZM29.4857 71.604H30.7244C31.1424 71.604 31.4436 71.5243 31.6278 71.365C31.814 71.2035 31.9072 70.9966 31.9072 70.7441C31.9072 70.5558 31.8606 70.386 31.7675 70.235C31.6743 70.0818 31.5419 69.9618 31.3701 69.8748C31.1983 69.7858 30.9934 69.7413 30.7554 69.7413H29.4857V71.604ZM29.4857 68.9125H30.625C30.8237 68.9125 31.0027 68.8762 31.1621 68.8038C31.3215 68.7293 31.4467 68.6248 31.5377 68.4903C31.6309 68.3537 31.6774 68.1922 31.6774 68.006C31.6774 67.7597 31.5905 67.5568 31.4167 67.3975C31.2449 67.2381 30.9893 67.1584 30.6499 67.1584H29.4857V68.9125ZM39.9355 69.3874C39.9355 70.0725 39.8072 70.6592 39.5506 71.1477C39.296 71.634 38.9483 72.0066 38.5075 72.2653C38.0687 72.524 37.571 72.6533 37.0142 72.6533C36.4575 72.6533 35.9587 72.524 35.5179 72.2653C35.0791 72.0045 34.7314 71.6309 34.4748 71.1446C34.2202 70.6561 34.0929 70.0704 34.0929 69.3874C34.0929 68.7024 34.2202 68.1167 34.4748 67.6303C34.7314 67.1419 35.0791 66.7683 35.5179 66.5096C35.9587 66.2509 36.4575 66.1215 37.0142 66.1215C37.571 66.1215 38.0687 66.2509 38.5075 66.5096C38.9483 66.7683 39.296 67.1419 39.5506 67.6303C39.8072 68.1167 39.9355 68.7024 39.9355 69.3874ZM38.7776 69.3874C38.7776 68.9052 38.702 68.4985 38.5509 68.1674C38.4019 67.8342 38.195 67.5827 37.93 67.413C37.6651 67.2412 37.3599 67.1553 37.0142 67.1553C36.6686 67.1553 36.3633 67.2412 36.0984 67.413C35.8335 67.5827 35.6255 67.8342 35.4744 68.1674C35.3254 68.4985 35.2509 68.9052 35.2509 69.3874C35.2509 69.8697 35.3254 70.2774 35.4744 70.6106C35.6255 70.9417 35.8335 71.1932 36.0984 71.365C36.3633 71.5347 36.6686 71.6195 37.0142 71.6195C37.3599 71.6195 37.6651 71.5347 37.93 71.365C38.195 71.1932 38.4019 70.9417 38.5509 70.6106C38.702 70.2774 38.7776 69.8697 38.7776 69.3874ZM46.8804 69.3874C46.8804 70.0725 46.7521 70.6592 46.4955 71.1477C46.2409 71.634 45.8932 72.0066 45.4524 72.2653C45.0136 72.524 44.5159 72.6533 43.9591 72.6533C43.4024 72.6533 42.9036 72.524 42.4628 72.2653C42.024 72.0045 41.6763 71.6309 41.4197 71.1446C41.1651 70.6561 41.0378 70.0704 41.0378 69.3874C41.0378 68.7024 41.1651 68.1167 41.4197 67.6303C41.6763 67.1419 42.024 66.7683 42.4628 66.5096C42.9036 66.2509 43.4024 66.1215 43.9591 66.1215C44.5159 66.1215 45.0136 66.2509 45.4524 66.5096C45.8932 66.7683 46.2409 67.1419 46.4955 67.6303C46.7521 68.1167 46.8804 68.7024 46.8804 69.3874ZM45.7225 69.3874C45.7225 68.9052 45.6469 68.4985 45.4958 68.1674C45.3468 67.8342 45.1399 67.5827 44.8749 67.413C44.61 67.2412 44.3048 67.1553 43.9591 67.1553C43.6135 67.1553 43.3082 67.2412 43.0433 67.413C42.7784 67.5827 42.5704 67.8342 42.4193 68.1674C42.2703 68.4985 42.1958 68.9052 42.1958 69.3874C42.1958 69.8697 42.2703 70.2774 42.4193 70.6106C42.5704 70.9417 42.7784 71.1932 43.0433 71.365C43.3082 71.5347 43.6135 71.6195 43.9591 71.6195C44.3048 71.6195 44.61 71.5347 44.8749 71.365C45.1399 71.1932 45.3468 70.9417 45.4958 70.6106C45.6469 70.2774 45.7225 69.8697 45.7225 69.3874ZM48.1441 72.5664V66.2085H49.2959V69.1298H49.3735L51.854 66.2085H53.2603L50.8016 69.0615L53.282 72.5664H51.8974L50.0006 69.8407L49.2959 70.6727V72.5664H48.1441ZM57.6564 67.9563C57.6275 67.6852 57.5053 67.4741 57.2901 67.323C57.0769 67.1719 56.7996 67.0963 56.4581 67.0963C56.218 67.0963 56.0121 67.1326 55.8403 67.205C55.6685 67.2774 55.5371 67.3757 55.4461 67.4999C55.355 67.6241 55.3084 67.7659 55.3064 67.9252C55.3064 68.0577 55.3364 68.1726 55.3964 68.2698C55.4585 68.3671 55.5423 68.4499 55.6478 68.5182C55.7534 68.5844 55.8703 68.6403 55.9986 68.6858C56.127 68.7314 56.2563 68.7697 56.3867 68.8007L56.9828 68.9497C57.2228 69.0056 57.4536 69.0811 57.6751 69.1763C57.8986 69.2715 58.0983 69.3916 58.2742 69.5365C58.4522 69.6813 58.5929 69.8562 58.6964 70.0611C58.7999 70.266 58.8516 70.5061 58.8516 70.7813C58.8516 71.1539 58.7564 71.4819 58.566 71.7655C58.3756 72.0469 58.1004 72.2673 57.7403 72.4267C57.3822 72.584 56.9486 72.6626 56.4395 72.6626C55.9448 72.6626 55.5154 72.5861 55.1511 72.4329C54.7889 72.2798 54.5054 72.0562 54.3005 71.7624C54.0977 71.4685 53.988 71.1104 53.9714 70.6882H55.1046C55.1211 70.9097 55.1894 71.0939 55.3095 71.2408C55.4295 71.3877 55.5858 71.4974 55.7782 71.5699C55.9728 71.6423 56.1901 71.6785 56.4302 71.6785C56.6806 71.6785 56.9 71.6413 57.0883 71.5668C57.2787 71.4902 57.4277 71.3846 57.5354 71.2501C57.643 71.1135 57.6978 70.9542 57.6999 70.772C57.6978 70.6065 57.6492 70.4699 57.554 70.3622C57.4588 70.2525 57.3253 70.1615 57.1535 70.089C56.9838 70.0145 56.7851 69.9483 56.5575 69.8904L55.8341 69.7041C55.3105 69.5696 54.8966 69.3657 54.5923 69.0925C54.2902 68.8173 54.1391 68.452 54.1391 67.9966C54.1391 67.622 54.2405 67.294 54.4433 67.0125C54.6482 66.7311 54.9266 66.5127 55.2784 66.3575C55.6303 66.2002 56.0287 66.1215 56.4736 66.1215C56.9248 66.1215 57.3201 66.2002 57.6595 66.3575C58.001 66.5127 58.269 66.729 58.4636 67.0063C58.6581 67.2816 58.7585 67.5982 58.7647 67.9563H57.6564ZM61.323 71.6972L61.2827 72.0386C61.2537 72.2994 61.2019 72.5643 61.1274 72.8334C61.055 73.1045 60.9784 73.3539 60.8977 73.5816C60.817 73.8092 60.7518 73.9882 60.7021 74.1186H59.9446C59.9736 73.9924 60.0129 73.8206 60.0626 73.6033C60.1143 73.386 60.164 73.1418 60.2116 72.8706C60.2592 72.5995 60.2913 72.3243 60.3079 72.0449L60.3296 71.6972H61.323ZM70.6345 69.3874C70.6345 70.0725 70.5062 70.6592 70.2495 71.1477C69.995 71.634 69.6473 72.0066 69.2065 72.2653C68.7677 72.524 68.2699 72.6533 67.7132 72.6533C67.1565 72.6533 66.6577 72.524 66.2169 72.2653C65.7781 72.0045 65.4304 71.6309 65.1738 71.1446C64.9192 70.6561 64.7919 70.0704 64.7919 69.3874C64.7919 68.7024 64.9192 68.1167 65.1738 67.6303C65.4304 67.1419 65.7781 66.7683 66.2169 66.5096C66.6577 66.2509 67.1565 66.1215 67.7132 66.1215C68.2699 66.1215 68.7677 66.2509 69.2065 66.5096C69.6473 66.7683 69.995 67.1419 70.2495 67.6303C70.5062 68.1167 70.6345 68.7024 70.6345 69.3874ZM69.4765 69.3874C69.4765 68.9052 69.401 68.4985 69.2499 68.1674C69.1009 67.8342 68.8939 67.5827 68.629 67.413C68.3641 67.2412 68.0588 67.1553 67.7132 67.1553C67.3676 67.1553 67.0623 67.2412 66.7974 67.413C66.5325 67.5827 66.3245 67.8342 66.1734 68.1674C66.0244 68.4985 65.9499 68.9052 65.9499 69.3874C65.9499 69.8697 66.0244 70.2774 66.1734 70.6106C66.3245 70.9417 66.5325 71.1932 66.7974 71.365C67.0623 71.5347 67.3676 71.6195 67.7132 71.6195C68.0588 71.6195 68.3641 71.5347 68.629 71.365C68.8939 71.1932 69.1009 70.9417 69.2499 70.6106C69.401 70.2774 69.4765 69.8697 69.4765 69.3874ZM75.9061 66.2085H77.0578V70.3622C77.0578 70.8176 76.9502 71.218 76.735 71.5637C76.5218 71.9093 76.2217 72.1794 75.8347 72.3739C75.4477 72.5664 74.9955 72.6626 74.478 72.6626C73.9586 72.6626 73.5053 72.5664 73.1183 72.3739C72.7313 72.1794 72.4312 71.9093 72.218 71.5637C72.0048 71.218 71.8982 70.8176 71.8982 70.3622V66.2085H73.05V70.266C73.05 70.5309 73.1079 70.7669 73.2238 70.9738C73.3418 71.1808 73.5074 71.3432 73.7206 71.4612C73.9337 71.5771 74.1862 71.6351 74.478 71.6351C74.7699 71.6351 75.0224 71.5771 75.2355 71.4612C75.4508 71.3432 75.6163 71.1808 75.7322 70.9738C75.8481 70.7669 75.9061 70.5309 75.9061 70.266V66.2085ZM78.4846 72.5664V66.2085H80.8688C81.3572 66.2085 81.767 66.2933 82.0982 66.463C82.4314 66.6327 82.6828 66.8708 82.8525 67.1771C83.0243 67.4813 83.1102 67.8362 83.1102 68.2419C83.1102 68.6496 83.0233 69.0035 82.8494 69.3036C82.6777 69.6016 82.4241 69.8324 82.0888 69.9959C81.7536 70.1573 81.3417 70.2381 80.8533 70.2381H79.1551V69.2819H80.698C80.9837 69.2819 81.2175 69.2426 81.3996 69.1639C81.5818 69.0832 81.7163 68.9663 81.8032 68.8131C81.8922 68.6579 81.9367 68.4675 81.9367 68.2419C81.9367 68.0163 81.8922 67.8238 81.8032 67.6645C81.7142 67.503 81.5787 67.3809 81.3965 67.2981C81.2144 67.2133 80.9795 67.1709 80.6918 67.1709H79.6363V72.5664H78.4846ZM81.7691 69.6855L83.343 72.5664H82.0578L80.5118 69.6855H81.7691ZM86.6885 72.5664V66.2085H89.1224C89.5819 66.2085 89.9637 66.2809 90.268 66.4258C90.5743 66.5686 90.803 66.7642 90.9541 67.0125C91.1072 67.2609 91.1838 67.5424 91.1838 67.8569C91.1838 68.1156 91.1341 68.3371 91.0348 68.5213C90.9354 68.7034 90.8019 68.8514 90.6343 68.9652C90.4667 69.0791 90.2794 69.1608 90.0724 69.2105V69.2726C90.298 69.285 90.5143 69.3543 90.7212 69.4806C90.9303 69.6048 91.101 69.7807 91.2335 70.0083C91.3659 70.236 91.4321 70.5113 91.4321 70.8341C91.4321 71.1632 91.3525 71.4591 91.1931 71.722C91.0337 71.9828 90.7937 72.1887 90.4729 72.3398C90.1521 72.4909 89.7485 72.5664 89.2621 72.5664H86.6885ZM87.8403 71.604H89.079C89.497 71.604 89.7982 71.5243 89.9824 71.365C90.1686 71.2035 90.2618 70.9966 90.2618 70.7441C90.2618 70.5558 90.2152 70.386 90.1221 70.235C90.0289 70.0818 89.8965 69.9618 89.7247 69.8748C89.5529 69.7858 89.348 69.7413 89.11 69.7413H87.8403V71.604ZM87.8403 68.9125H88.9796C89.1783 68.9125 89.3573 68.8762 89.5167 68.8038C89.6761 68.7293 89.8013 68.6248 89.8923 68.4903C89.9855 68.3537 90.032 68.1922 90.032 68.006C90.032 67.7597 89.9451 67.5568 89.7713 67.3975C89.5995 67.2381 89.3439 67.1584 89.0045 67.1584H87.8403V68.9125ZM96.6168 66.2085H97.7686V70.3622C97.7686 70.8176 97.6609 71.218 97.4457 71.5637C97.2325 71.9093 96.9324 72.1794 96.5454 72.3739C96.1584 72.5664 95.7062 72.6626 95.1888 72.6626C94.6693 72.6626 94.216 72.5664 93.829 72.3739C93.442 72.1794 93.1419 71.9093 92.9287 71.5637C92.7155 71.218 92.609 70.8176 92.609 70.3622V66.2085H93.7607V70.266C93.7607 70.5309 93.8187 70.7669 93.9346 70.9738C94.0525 71.1808 94.2181 71.3432 94.4313 71.4612C94.6444 71.5771 94.8969 71.6351 95.1888 71.6351C95.4806 71.6351 95.7331 71.5771 95.9463 71.4612C96.1615 71.3432 96.3271 71.1808 96.443 70.9738C96.5589 70.7669 96.6168 70.5309 96.6168 70.266V66.2085ZM102.651 67.9563C102.622 67.6852 102.499 67.4741 102.284 67.323C102.071 67.1719 101.794 67.0963 101.452 67.0963C101.212 67.0963 101.006 67.1326 100.834 67.205C100.663 67.2774 100.531 67.3757 100.44 67.4999C100.349 67.6241 100.303 67.7659 100.3 67.9252C100.3 68.0577 100.33 68.1726 100.391 68.2698C100.453 68.3671 100.536 68.4499 100.642 68.5182C100.748 68.5844 100.864 68.6403 100.993 68.6858C101.121 68.7314 101.25 68.7697 101.381 68.8007L101.977 68.9497C102.217 69.0056 102.448 69.0811 102.669 69.1763C102.893 69.2715 103.092 69.3916 103.268 69.5365C103.446 69.6813 103.587 69.8562 103.691 70.0611C103.794 70.266 103.846 70.5061 103.846 70.7813C103.846 71.1539 103.751 71.4819 103.56 71.7655C103.37 72.0469 103.094 72.2673 102.734 72.4267C102.376 72.584 101.943 72.6626 101.434 72.6626C100.939 72.6626 100.51 72.5861 100.145 72.4329C99.7831 72.2798 99.4995 72.0562 99.2946 71.7624C99.0918 71.4685 98.9821 71.1104 98.9656 70.6882H100.099C100.115 70.9097 100.184 71.0939 100.304 71.2408C100.424 71.3877 100.58 71.4974 100.772 71.5699C100.967 71.6423 101.184 71.6785 101.424 71.6785C101.675 71.6785 101.894 71.6413 102.082 71.5668C102.273 71.4902 102.422 71.3846 102.529 71.2501C102.637 71.1135 102.692 70.9542 102.694 70.772C102.692 70.6065 102.643 70.4699 102.548 70.3622C102.453 70.2525 102.319 70.1615 102.148 70.089C101.978 70.0145 101.779 69.9483 101.552 69.8904L100.828 69.7041C100.305 69.5696 99.8907 69.3657 99.5864 69.0925C99.2843 68.8173 99.1332 68.452 99.1332 67.9966C99.1332 67.622 99.2346 67.294 99.4374 67.0125C99.6423 66.7311 99.9207 66.5127 100.273 66.3575C100.624 66.2002 101.023 66.1215 101.468 66.1215C101.919 66.1215 102.314 66.2002 102.654 66.3575C102.995 66.5127 103.263 66.729 103.458 67.0063C103.652 67.2816 103.753 67.5982 103.759 67.9563H102.651ZM106.199 66.2085V72.5664H105.047V66.2085H106.199ZM112.846 66.2085V72.5664H111.822L108.826 68.2357H108.773V72.5664H107.621V66.2085H108.652L111.645 70.5423H111.7V66.2085H112.846ZM114.276 72.5664V66.2085H118.411V67.174H115.428V68.9H118.197V69.8655H115.428V71.6009H118.436V72.5664H114.276ZM123.216 67.9563C123.187 67.6852 123.065 67.4741 122.85 67.323C122.637 67.1719 122.359 67.0963 122.018 67.0963C121.778 67.0963 121.572 67.1326 121.4 67.205C121.228 67.2774 121.097 67.3757 121.006 67.4999C120.915 67.6241 120.868 67.7659 120.866 67.9252C120.866 68.0577 120.896 68.1726 120.956 68.2698C121.018 68.3671 121.102 68.4499 121.208 68.5182C121.313 68.5844 121.43 68.6403 121.558 68.6858C121.687 68.7314 121.816 68.7697 121.946 68.8007L122.542 68.9497C122.783 69.0056 123.013 69.0811 123.235 69.1763C123.458 69.2715 123.658 69.3916 123.834 69.5365C124.012 69.6813 124.153 69.8562 124.256 70.0611C124.36 70.266 124.411 70.5061 124.411 70.7813C124.411 71.1539 124.316 71.4819 124.126 71.7655C123.935 72.0469 123.66 72.2673 123.3 72.4267C122.942 72.584 122.508 72.6626 121.999 72.6626C121.505 72.6626 121.075 72.5861 120.711 72.4329C120.349 72.2798 120.065 72.0562 119.86 71.7624C119.657 71.4685 119.548 71.1104 119.531 70.6882H120.664C120.681 70.9097 120.749 71.0939 120.869 71.2408C120.989 71.3877 121.145 71.4974 121.338 71.5699C121.532 71.6423 121.75 71.6785 121.99 71.6785C122.24 71.6785 122.46 71.6413 122.648 71.5668C122.838 71.4902 122.987 71.3846 123.095 71.2501C123.203 71.1135 123.258 70.9542 123.26 70.772C123.258 70.6065 123.209 70.4699 123.114 70.3622C123.018 70.2525 122.885 70.1615 122.713 70.089C122.544 70.0145 122.345 69.9483 122.117 69.8904L121.394 69.7041C120.87 69.5696 120.456 69.3657 120.152 69.0925C119.85 68.8173 119.699 68.452 119.699 67.9966C119.699 67.622 119.8 67.294 120.003 67.0125C120.208 66.7311 120.486 66.5127 120.838 66.3575C121.19 66.2002 121.588 66.1215 122.033 66.1215C122.485 66.1215 122.88 66.2002 123.219 66.3575C123.561 66.5127 123.829 66.729 124.023 67.0063C124.218 67.2816 124.318 67.5982 124.324 67.9563H123.216ZM129.068 67.9563C129.039 67.6852 128.917 67.4741 128.702 67.323C128.489 67.1719 128.211 67.0963 127.87 67.0963C127.63 67.0963 127.424 67.1326 127.252 67.205C127.08 67.2774 126.949 67.3757 126.858 67.4999C126.767 67.6241 126.72 67.7659 126.718 67.9252C126.718 68.0577 126.748 68.1726 126.808 68.2698C126.87 68.3671 126.954 68.4499 127.06 68.5182C127.165 68.5844 127.282 68.6403 127.41 68.6858C127.539 68.7314 127.668 68.7697 127.799 68.8007L128.395 68.9497C128.635 69.0056 128.865 69.0811 129.087 69.1763C129.31 69.2715 129.51 69.3916 129.686 69.5365C129.864 69.6813 130.005 69.8562 130.108 70.0611C130.212 70.266 130.263 70.5061 130.263 70.7813C130.263 71.1539 130.168 71.4819 129.978 71.7655C129.787 72.0469 129.512 72.2673 129.152 72.4267C128.794 72.584 128.36 72.6626 127.851 72.6626C127.357 72.6626 126.927 72.5861 126.563 72.4329C126.201 72.2798 125.917 72.0562 125.712 71.7624C125.51 71.4685 125.4 71.1104 125.383 70.6882H126.516C126.533 70.9097 126.601 71.0939 126.721 71.2408C126.841 71.3877 126.998 71.4974 127.19 71.5699C127.385 71.6423 127.602 71.6785 127.842 71.6785C128.092 71.6785 128.312 71.6413 128.5 71.5668C128.691 71.4902 128.84 71.3846 128.947 71.2501C129.055 71.1135 129.11 70.9542 129.112 70.772C129.11 70.6065 129.061 70.4699 128.966 70.3622C128.871 70.2525 128.737 70.1615 128.565 70.089C128.396 70.0145 128.197 69.9483 127.969 69.8904L127.246 69.7041C126.722 69.5696 126.308 69.3657 126.004 69.0925C125.702 68.8173 125.551 68.452 125.551 67.9966C125.551 67.622 125.652 67.294 125.855 67.0125C126.06 66.7311 126.338 66.5127 126.69 66.3575C127.042 66.2002 127.44 66.1215 127.885 66.1215C128.337 66.1215 128.732 66.2002 129.071 66.3575C129.413 66.5127 129.681 66.729 129.875 67.0063C130.07 67.2816 130.17 67.5982 130.177 67.9563H129.068Z" fill="#EDEDED"/>
</svg>
