<svg width="122" height="66" viewBox="0 0 122 66" fill="none" xmlns="http://www.w3.org/2000/svg">
<path d="M0 55.446V40.8584H9.90298V43.817H3.3694V46.9606H8.75239V49.6931H3.3694V55.446H0ZM59.7063 52.4873V55.446H69.9585V40.8584H59.8911V43.817H66.589V46.6523H60.8362V49.385H66.589V52.4873H59.7063ZM11.6906 55.446V40.8584H15.0601V55.446H11.6906ZM21.2238 47.1044V55.446H17.8544V40.8584H20.4844L27.2849 49.426V40.8584H30.6545V55.446H27.9423L21.2238 47.1044ZM33.4488 55.446V40.8584H36.8182V47.1454L42.1602 40.8584H45.9407L40.4754 47.3714L46.3103 55.446H42.4684L38.3387 49.5699L36.8182 51.1518V55.446H33.4488ZM57.6518 52.4873V55.446H47.3995V40.8584H57.4668V43.817H50.7688V46.6523H56.5217V49.385H50.7688V52.4873H57.6518ZM72.0133 55.446V40.8584H78.2387C78.9371 40.8584 79.5775 41.0022 80.1598 41.2898C80.7419 41.5774 81.2418 41.9541 81.6595 42.4199C82.0774 42.8856 82.4061 43.4131 82.6457 44.002C82.8854 44.591 83.0053 45.1867 83.0053 45.7894C83.0053 46.4332 82.8922 47.0495 82.6663 47.6385C82.4403 48.2276 82.1254 48.7549 81.7212 49.2206C81.3171 49.6863 80.8275 50.056 80.2521 50.33C79.6769 50.604 79.04 50.7411 78.3413 50.7411H75.3828V55.446H72.0133ZM75.3828 47.8028H78.1359C78.5331 47.8028 78.8756 47.6316 79.1632 47.2893C79.4508 46.9469 79.5946 46.447 79.5946 45.7894C79.5946 45.447 79.5502 45.1525 79.4611 44.9059C79.372 44.6594 79.2523 44.4539 79.1015 44.2895C78.9509 44.1253 78.7798 44.0053 78.5881 43.9299C78.3961 43.8547 78.2043 43.817 78.0126 43.817H75.3828V47.8028ZM95.0657 52.4873V55.446H84.8135V40.8584H94.8807V43.817H88.1829V46.6523H93.9357V49.385H88.1829V52.4873H95.0657ZM97.1204 55.446V40.8584H103.695C104.38 40.8584 105.013 41.0022 105.596 41.2898C106.178 41.5774 106.681 41.9541 107.106 42.4199C107.53 42.8856 107.862 43.4131 108.102 44.002C108.342 44.591 108.462 45.1867 108.462 45.7894C108.462 46.2414 108.407 46.6763 108.297 47.094C108.188 47.5119 108.03 47.9057 107.825 48.2756C107.619 48.6453 107.369 48.9774 107.075 49.272C106.78 49.5664 106.448 49.8164 106.078 50.0218L109.284 55.446H105.483L102.688 50.7411H100.49V55.446H97.1204ZM100.49 47.8028H103.572C103.969 47.8028 104.311 47.6145 104.599 47.2378C104.887 46.8612 105.03 46.3784 105.03 45.7894C105.03 45.1867 104.866 44.7074 104.537 44.3511C104.209 43.9951 103.853 43.817 103.469 43.817H100.49V47.8028ZM119.639 45.132C119.598 45.0771 119.454 44.9744 119.207 44.8238C118.96 44.673 118.652 44.5154 118.283 44.3511C117.913 44.1867 117.509 44.0429 117.07 43.9197C116.632 43.7964 116.194 43.7348 115.755 43.7348C114.55 43.7348 113.947 44.1387 113.947 44.947C113.947 45.1935 114.012 45.399 114.143 45.5634C114.273 45.7278 114.464 45.875 114.718 46.005C114.971 46.1352 115.29 46.2551 115.673 46.3646C116.057 46.4742 116.502 46.5975 117.009 46.7345C117.707 46.9263 118.337 47.1352 118.899 47.3611C119.46 47.5871 119.936 47.868 120.327 48.2035C120.717 48.539 121.019 48.9466 121.231 49.426C121.443 49.9054 121.549 50.4808 121.549 51.1518C121.549 51.9736 121.395 52.6688 121.087 53.2372C120.779 53.8059 120.371 54.2646 119.865 54.6139C119.358 54.9631 118.776 55.2166 118.118 55.3741C117.461 55.5315 116.783 55.6104 116.084 55.6104C115.55 55.6104 115.002 55.5692 114.44 55.4871C113.879 55.4048 113.331 55.2852 112.797 55.1276C112.263 54.9699 111.746 54.7817 111.245 54.5624C110.746 54.3433 110.283 54.0899 109.859 53.8024L111.338 50.8643C111.393 50.9328 111.571 51.0628 111.872 51.2545C112.174 51.4464 112.547 51.6381 112.992 51.8299C113.437 52.0216 113.934 52.1929 114.482 52.3436C115.029 52.4941 115.584 52.5694 116.146 52.5694C117.337 52.5694 117.933 52.2066 117.933 51.4807C117.933 51.2066 117.844 50.9807 117.666 50.8026C117.488 50.6247 117.241 50.4636 116.927 50.3197C116.611 50.1759 116.238 50.0424 115.807 49.9192C115.375 49.7957 114.906 49.659 114.399 49.5082C113.728 49.3026 113.146 49.0801 112.653 48.8404C112.16 48.6007 111.752 48.3234 111.43 48.0083C111.108 47.6934 110.869 47.3302 110.711 46.9195C110.554 46.5084 110.475 46.0291 110.475 45.4813C110.475 44.7142 110.619 44.0361 110.906 43.4472C111.194 42.8582 111.584 42.3616 112.078 41.9575C112.571 41.5536 113.143 41.2487 113.793 41.0434C114.444 40.8379 115.132 40.735 115.858 40.735C116.365 40.735 116.865 40.7831 117.358 40.879C117.851 40.9749 118.324 41.0981 118.776 41.2487C119.228 41.3995 119.649 41.5707 120.039 41.7624C120.429 41.9541 120.789 42.146 121.118 42.3377L119.639 45.132Z" fill="white"/>
<path d="M24.4103 61.0881L23.0825 63.6263V65.1646H22.5503V63.6263L21.2168 61.0881H21.8076L22.8135 63.1526L23.8195 61.0881H24.4103ZM26.82 65.2055C26.4417 65.2055 26.0967 65.1169 25.7847 64.9394C25.4727 64.762 25.2261 64.5144 25.0448 64.1967C24.8636 63.8788 24.7728 63.5212 24.7728 63.1235C24.7728 62.7257 24.8636 62.368 25.0448 62.0501C25.2261 61.7324 25.4727 61.4848 25.7847 61.3075C26.0967 61.13 26.4417 61.0413 26.82 61.0413C27.202 61.0413 27.5491 61.13 27.861 61.3075C28.1729 61.4848 28.4185 61.7315 28.5979 62.0473C28.7773 62.363 28.867 62.7218 28.867 63.1235C28.867 63.525 28.7773 63.8838 28.5979 64.1995C28.4185 64.5154 28.1729 64.762 27.861 64.9394C27.5491 65.1169 27.202 65.2055 26.82 65.2055ZM26.82 64.7435C27.1045 64.7435 27.3609 64.6772 27.589 64.5446C27.8171 64.4121 27.9965 64.2229 28.1271 63.9773C28.2577 63.7317 28.3231 63.4471 28.3231 63.1235C28.3231 62.7959 28.2577 62.5103 28.1271 62.2665C27.9965 62.0228 27.8181 61.8348 27.5919 61.7022C27.3659 61.5696 27.1084 61.5033 26.82 61.5033C26.5314 61.5033 26.274 61.5696 26.0479 61.7022C25.8217 61.8348 25.6434 62.0228 25.5127 62.2665C25.3821 62.5103 25.3168 62.7959 25.3168 63.1235C25.3168 63.4471 25.3821 63.7317 25.5127 63.9773C25.6434 64.2229 25.8227 64.4121 26.0508 64.5446C26.2788 64.6772 26.5352 64.7435 26.82 64.7435ZM30.0892 61.0881V63.6674C30.0892 64.03 30.178 64.2989 30.3554 64.4745C30.5327 64.65 30.7794 64.7377 31.0952 64.7377C31.4072 64.7377 31.6518 64.65 31.8292 64.4745C32.0067 64.2989 32.0953 64.03 32.0953 63.6674V61.0881H32.6276V63.6615C32.6276 64.0007 32.5594 64.2863 32.423 64.5183C32.2865 64.7504 32.1022 64.9228 31.8703 65.0359C31.6382 65.149 31.378 65.2055 31.0894 65.2055C30.8009 65.2055 30.5406 65.149 30.3086 65.0359C30.0767 64.9228 29.8934 64.7504 29.7588 64.5183C29.6243 64.2863 29.5571 64.0007 29.5571 63.6615V61.0881H30.0892ZM35.6631 65.1646L34.6923 63.4978H34.0489V65.1646H33.5167V61.0881H34.8326C35.1406 61.0881 35.401 61.1408 35.6134 61.246C35.8259 61.3513 35.9849 61.4935 36.0901 61.6729C36.1954 61.8523 36.248 62.0571 36.248 62.2871C36.248 62.5678 36.167 62.8154 36.0053 63.0298C35.8434 63.2443 35.6007 63.3865 35.2771 63.4568L36.3007 65.1646H35.6631ZM34.0489 63.0708H34.8326C35.1212 63.0708 35.3376 62.9996 35.4819 62.8574C35.6261 62.715 35.6982 62.5249 35.6982 62.2871C35.6982 62.0453 35.627 61.8582 35.4848 61.7256C35.3424 61.593 35.1251 61.5267 34.8326 61.5267H34.0489V63.0708ZM40.6756 63.0649C40.8237 63.0883 40.9592 63.1487 41.082 63.2462C41.2047 63.3438 41.3024 63.4646 41.3744 63.6088C41.4466 63.7531 41.4827 63.9072 41.4827 64.071C41.4827 64.2776 41.43 64.4638 41.3247 64.6294C41.2195 64.7952 41.0664 64.9257 40.8656 65.0213C40.6647 65.1169 40.4279 65.1646 40.1549 65.1646H38.6343V61.0881H40.0965C40.3733 61.0881 40.6093 61.134 40.8042 61.2255C40.9992 61.3172 41.1454 61.441 41.2428 61.5968C41.3403 61.7528 41.3891 61.9283 41.3891 62.1232C41.3891 62.3651 41.3237 62.5649 41.1931 62.7227C41.0625 62.8807 40.89 62.9948 40.6756 63.0649ZM39.1666 62.8485H40.0614C40.3109 62.8485 40.5039 62.79 40.6404 62.673C40.7769 62.556 40.8452 62.3943 40.8452 62.1877C40.8452 61.981 40.7769 61.8191 40.6404 61.7022C40.5039 61.5852 40.307 61.5267 40.0497 61.5267H39.1666V62.8485ZM40.1081 64.7259C40.3733 64.7259 40.58 64.6636 40.7281 64.5388C40.8764 64.4141 40.9504 64.2406 40.9504 64.0183C40.9504 63.7921 40.8724 63.6138 40.7164 63.4831C40.5605 63.3524 40.3519 63.2872 40.0906 63.2872H39.1666V64.7259H40.1081ZM44.0678 65.2055C43.6896 65.2055 43.3445 65.1169 43.0325 64.9394C42.7206 64.762 42.4739 64.5144 42.2927 64.1967C42.1114 63.8788 42.0207 63.5212 42.0207 63.1235C42.0207 62.7257 42.1114 62.368 42.2927 62.0501C42.4739 61.7324 42.7206 61.4848 43.0325 61.3075C43.3445 61.13 43.6896 61.0413 44.0678 61.0413C44.4498 61.0413 44.797 61.13 45.1088 61.3075C45.4208 61.4848 45.6664 61.7315 45.8457 62.0473C46.0251 62.363 46.1148 62.7218 46.1148 63.1235C46.1148 63.525 46.0251 63.8838 45.8457 64.1995C45.6664 64.5154 45.4208 64.762 45.1088 64.9394C44.797 65.1169 44.4498 65.2055 44.0678 65.2055ZM44.0678 64.7435C44.3524 64.7435 44.6088 64.6772 44.8368 64.5446C45.065 64.4121 45.2444 64.2229 45.375 63.9773C45.5056 63.7317 45.5709 63.4471 45.5709 63.1235C45.5709 62.7959 45.5056 62.5103 45.375 62.2665C45.2444 62.0228 45.0659 61.8348 44.8398 61.7022C44.6137 61.5696 44.3563 61.5033 44.0678 61.5033C43.7792 61.5033 43.5219 61.5696 43.2958 61.7022C43.0696 61.8348 42.8913 62.0228 42.7605 62.2665C42.6299 62.5103 42.5647 62.7959 42.5647 63.1235C42.5647 63.4471 42.6299 63.7317 42.7605 63.9773C42.8913 64.2229 43.0705 64.4121 43.2987 64.5446C43.5267 64.6772 43.7831 64.7435 44.0678 64.7435ZM48.6648 65.2055C48.2866 65.2055 47.9416 65.1169 47.6296 64.9394C47.3176 64.762 47.071 64.5144 46.8897 64.1967C46.7084 63.8788 46.6177 63.5212 46.6177 63.1235C46.6177 62.7257 46.7084 62.368 46.8897 62.0501C47.071 61.7324 47.3176 61.4848 47.6296 61.3075C47.9416 61.13 48.2866 61.0413 48.6648 61.0413C49.0468 61.0413 49.394 61.13 49.7058 61.3075C50.0178 61.4848 50.2634 61.7315 50.4428 62.0473C50.6222 62.363 50.7119 62.7218 50.7119 63.1235C50.7119 63.525 50.6222 63.8838 50.4428 64.1995C50.2634 64.5154 50.0178 64.762 49.7058 64.9394C49.394 65.1169 49.0468 65.2055 48.6648 65.2055ZM48.6648 64.7435C48.9494 64.7435 49.2058 64.6772 49.4338 64.5446C49.662 64.4121 49.8414 64.2229 49.972 63.9773C50.1026 63.7317 50.168 63.4471 50.168 63.1235C50.168 62.7959 50.1026 62.5103 49.972 62.2665C49.8414 62.0228 49.6629 61.8348 49.4368 61.7022C49.2108 61.5696 48.9533 61.5033 48.6648 61.5033C48.3762 61.5033 48.1189 61.5696 47.8928 61.7022C47.6666 61.8348 47.4883 62.0228 47.3575 62.2665C47.227 62.5103 47.1617 62.7959 47.1617 63.1235C47.1617 63.4471 47.227 63.7317 47.3575 63.9773C47.4883 64.2229 47.6675 64.4121 47.8957 64.5446C48.1237 64.6772 48.3801 64.7435 48.6648 64.7435ZM53.6245 65.1646L51.9459 63.3047V65.1646H51.4136V61.0881H51.9459V62.9772L53.6303 61.0881H54.3028L52.4548 63.1292L54.3204 65.1646H53.6245ZM56.2095 65.2055C55.9405 65.2055 55.6997 65.1578 55.4872 65.0622C55.2746 64.9668 55.108 64.8342 54.9871 64.6645C54.8663 64.4949 54.8039 64.299 54.8 64.0768H55.3673C55.3868 64.2678 55.4658 64.4286 55.6042 64.5592C55.7426 64.69 55.9443 64.7552 56.2095 64.7552C56.4629 64.7552 56.6628 64.6918 56.809 64.5651C56.9552 64.4384 57.0284 64.2756 57.0284 64.0768C57.0284 63.9208 56.9855 63.7941 56.8997 63.6965C56.8138 63.5991 56.7066 63.525 56.578 63.4743C56.4493 63.4237 56.2758 63.369 56.0574 63.3106C55.7885 63.2404 55.573 63.1703 55.4111 63.1C55.2494 63.0298 55.1109 62.9196 54.9959 62.7695C54.8808 62.6194 54.8234 62.4177 54.8234 62.1643C54.8234 61.942 54.8799 61.7451 54.993 61.5735C55.1061 61.402 55.265 61.2693 55.4697 61.1758C55.6743 61.0822 55.9093 61.0355 56.1744 61.0355C56.5566 61.0355 56.8695 61.131 57.1131 61.322C57.3568 61.513 57.4943 61.7665 57.5255 62.0823H56.9406C56.9212 61.9263 56.8392 61.7889 56.695 61.67C56.5507 61.5511 56.3596 61.4916 56.1218 61.4916C55.8995 61.4916 55.7183 61.5491 55.5778 61.6642C55.4375 61.7792 55.3673 61.94 55.3673 62.1466C55.3673 62.2949 55.4092 62.4157 55.493 62.5093C55.5768 62.6029 55.6802 62.6741 55.803 62.7227C55.9259 62.7715 56.0984 62.8271 56.3206 62.8894C56.5897 62.9636 56.8061 63.0366 56.9698 63.1088C57.1336 63.1809 57.2739 63.292 57.3909 63.4421C57.508 63.5923 57.5664 63.796 57.5664 64.0534C57.5664 64.2522 57.5138 64.4393 57.4086 64.6148C57.3032 64.7904 57.1472 64.9326 56.9406 65.0418C56.7339 65.1509 56.4902 65.2055 56.2095 65.2055ZM58.8999 64.4277L58.2449 66.001H57.888L58.3151 64.4277H58.8999ZM62.918 65.2055C62.5397 65.2055 62.1947 65.1169 61.8827 64.9394C61.5707 64.762 61.3241 64.5144 61.1428 64.1967C60.9616 63.8788 60.8709 63.5212 60.8709 63.1235C60.8709 62.7257 60.9616 62.368 61.1428 62.0501C61.3241 61.7324 61.5707 61.4848 61.8827 61.3075C62.1947 61.13 62.5397 61.0413 62.918 61.0413C63.3 61.0413 63.6471 61.13 63.959 61.3075C64.271 61.4848 64.5165 61.7315 64.6959 62.0473C64.8753 62.363 64.965 62.7218 64.965 63.1235C64.965 63.525 64.8753 63.8838 64.6959 64.1995C64.5165 64.5154 64.271 64.762 63.959 64.9394C63.6471 65.1169 63.3 65.2055 62.918 65.2055ZM62.918 64.7435C63.2025 64.7435 63.4589 64.6772 63.687 64.5446C63.9152 64.4121 64.0945 64.2229 64.2251 63.9773C64.3557 63.7317 64.4211 63.4471 64.4211 63.1235C64.4211 62.7959 64.3557 62.5103 64.2251 62.2665C64.0945 62.0228 63.9161 61.8348 63.6899 61.7022C63.4639 61.5696 63.2064 61.5033 62.918 61.5033C62.6294 61.5033 62.3721 61.5696 62.1459 61.7022C61.9197 61.8348 61.7414 62.0228 61.6107 62.2665C61.4801 62.5103 61.4149 62.7959 61.4149 63.1235C61.4149 63.4471 61.4801 63.7317 61.6107 63.9773C61.7414 64.2229 61.9207 64.4121 62.1489 64.5446C62.3769 64.6772 62.6332 64.7435 62.918 64.7435ZM66.1873 61.0881V63.6674C66.1873 64.03 66.276 64.2989 66.4534 64.4745C66.6308 64.65 66.8774 64.7377 67.1933 64.7377C67.5053 64.7377 67.7498 64.65 67.9272 64.4745C68.1047 64.2989 68.1933 64.03 68.1933 63.6674V61.0881H68.7256V63.6615C68.7256 64.0007 68.6575 64.2863 68.521 64.5183C68.3845 64.7504 68.2002 64.9228 67.9683 65.0359C67.7362 65.149 67.476 65.2055 67.1874 65.2055C66.8989 65.2055 66.6387 65.149 66.4066 65.0359C66.1747 64.9228 65.9914 64.7504 65.8568 64.5183C65.7223 64.2863 65.6551 64.0007 65.6551 63.6615V61.0881H66.1873ZM71.7611 65.1646L70.7903 63.4978H70.147V65.1646H69.6147V61.0881H70.9306C71.2386 61.0881 71.499 61.1408 71.7114 61.246C71.9239 61.3513 72.0829 61.4935 72.1881 61.6729C72.2934 61.8523 72.3461 62.0571 72.3461 62.2871C72.3461 62.5678 72.265 62.8154 72.1033 63.0298C71.9415 63.2443 71.6987 63.3865 71.3751 63.4568L72.3987 65.1646H71.7611ZM70.147 63.0708H70.9306C71.2192 63.0708 71.4357 62.9996 71.5799 62.8574C71.7241 62.715 71.7963 62.5249 71.7963 62.2871C71.7963 62.0453 71.7251 61.8582 71.5828 61.7256C71.4405 61.593 71.2231 61.5267 70.9306 61.5267H70.147V63.0708ZM76.7736 63.0649C76.9217 63.0883 77.0572 63.1487 77.1801 63.2462C77.3028 63.3438 77.4004 63.4646 77.4724 63.6088C77.5446 63.7531 77.5807 63.9072 77.5807 64.071C77.5807 64.2776 77.528 64.4638 77.4227 64.6294C77.3175 64.7952 77.1645 64.9257 76.9637 65.0213C76.7628 65.1169 76.5259 65.1646 76.2529 65.1646H74.7323V61.0881H76.1946C76.4714 61.0881 76.7073 61.134 76.9022 61.2255C77.0972 61.3172 77.2434 61.441 77.3409 61.5968C77.4383 61.7528 77.4871 61.9283 77.4871 62.1232C77.4871 62.3651 77.4217 62.5649 77.2912 62.7227C77.1606 62.8807 76.988 62.9948 76.7736 63.0649ZM75.2646 62.8485H76.1594C76.4089 62.8485 76.602 62.79 76.7384 62.673C76.8749 62.556 76.9432 62.3943 76.9432 62.1877C76.9432 61.981 76.8749 61.8191 76.7384 61.7022C76.602 61.5852 76.4051 61.5267 76.1477 61.5267H75.2646V62.8485ZM76.2062 64.7259C76.4714 64.7259 76.678 64.6636 76.8261 64.5388C76.9744 64.4141 77.0484 64.2406 77.0484 64.0183C77.0484 63.7921 76.9705 63.6138 76.8145 63.4831C76.6585 63.3524 76.45 63.2872 76.1887 63.2872H75.2646V64.7259H76.2062ZM78.8381 61.0881V63.6674C78.8381 64.03 78.9269 64.2989 79.1042 64.4745C79.2816 64.65 79.5283 64.7377 79.8441 64.7377C80.1561 64.7377 80.4007 64.65 80.5781 64.4745C80.7556 64.2989 80.8442 64.03 80.8442 63.6674V61.0881H81.3765V63.6615C81.3765 64.0007 81.3083 64.2863 81.1718 64.5183C81.0353 64.7504 80.851 64.9228 80.6191 65.0359C80.3871 65.149 80.1268 65.2055 79.8382 65.2055C79.5498 65.2055 79.2895 65.149 79.0575 65.0359C78.8255 64.9228 78.6423 64.7504 78.5077 64.5183C78.3732 64.2863 78.306 64.0007 78.306 63.6615V61.0881H78.8381ZM83.5581 65.2055C83.289 65.2055 83.0483 65.1578 82.8357 65.0622C82.6232 64.9668 82.4565 64.8342 82.3357 64.6645C82.2148 64.4949 82.1524 64.299 82.1486 64.0768H82.7158C82.7354 64.2678 82.8144 64.4286 82.9527 64.5592C83.0912 64.69 83.2929 64.7552 83.5581 64.7552C83.8115 64.7552 84.0114 64.6918 84.1576 64.5651C84.3038 64.4384 84.377 64.2756 84.377 64.0768C84.377 63.9208 84.3341 63.7941 84.2482 63.6965C84.1624 63.5991 84.0552 63.525 83.9266 63.4743C83.7979 63.4237 83.6244 63.369 83.406 63.3106C83.137 63.2404 82.9216 63.1703 82.7597 63.1C82.5979 63.0298 82.4595 62.9196 82.3445 62.7695C82.2294 62.6194 82.1719 62.4177 82.1719 62.1643C82.1719 61.942 82.2285 61.7451 82.3416 61.5735C82.4547 61.402 82.6136 61.2693 82.8183 61.1758C83.0229 61.0822 83.2579 61.0355 83.5229 61.0355C83.9051 61.0355 84.218 61.131 84.4617 61.322C84.7054 61.513 84.8429 61.7665 84.8741 62.0823H84.2891C84.2697 61.9263 84.1878 61.7889 84.0436 61.67C83.8992 61.5511 83.7082 61.4916 83.4704 61.4916C83.2481 61.4916 83.0668 61.5491 82.9264 61.6642C82.786 61.7792 82.7158 61.94 82.7158 62.1466C82.7158 62.2949 82.7578 62.4157 82.8416 62.5093C82.9254 62.6029 83.0287 62.6741 83.1516 62.7227C83.2744 62.7715 83.447 62.8271 83.6692 62.8894C83.9382 62.9636 84.1547 63.0366 84.3184 63.1088C84.4821 63.1809 84.6225 63.292 84.7395 63.4421C84.8565 63.5923 84.915 63.796 84.915 64.0534C84.915 64.2522 84.8623 64.4393 84.7571 64.6148C84.6518 64.7904 84.4958 64.9326 84.2891 65.0418C84.0825 65.1509 83.8388 65.2055 83.5581 65.2055ZM86.2309 61.0881V65.1646H85.6987V61.0881H86.2309ZM90.3426 65.1646H89.8103L87.6698 61.9186V65.1646H87.1375V61.0822H87.6698L89.8103 64.3223V61.0822H90.3426V65.1646ZM91.7814 61.5209V62.8837H93.267V63.3223H91.7814V64.7259H93.4424V65.1646H91.2491V61.0822H93.4424V61.5209H91.7814ZM95.5421 65.2055C95.273 65.2055 95.0323 65.1578 94.8197 65.0622C94.6072 64.9668 94.4405 64.8342 94.3197 64.6645C94.1989 64.4949 94.1364 64.299 94.1326 64.0768H94.6998C94.7194 64.2678 94.7983 64.4286 94.9367 64.5592C95.0751 64.69 95.2769 64.7552 95.5421 64.7552C95.7955 64.7552 95.9953 64.6918 96.1416 64.5651C96.2878 64.4384 96.3609 64.2756 96.3609 64.0768C96.3609 63.9208 96.318 63.7941 96.2322 63.6965C96.1464 63.5991 96.0392 63.525 95.9106 63.4743C95.7819 63.4237 95.6084 63.369 95.39 63.3106C95.121 63.2404 94.9055 63.1703 94.7437 63.1C94.5819 63.0298 94.4435 62.9196 94.3285 62.7695C94.2134 62.6194 94.1559 62.4177 94.1559 62.1643C94.1559 61.942 94.2125 61.7451 94.3256 61.5735C94.4386 61.402 94.5976 61.2693 94.8022 61.1758C95.0069 61.0822 95.2418 61.0355 95.5069 61.0355C95.8891 61.0355 96.202 61.131 96.4457 61.322C96.6894 61.513 96.8269 61.7665 96.858 62.0823H96.2731C96.2538 61.9263 96.1718 61.7889 96.0275 61.67C95.8832 61.5511 95.6922 61.4916 95.4544 61.4916C95.2321 61.4916 95.0509 61.5491 94.9103 61.6642C94.77 61.7792 94.6998 61.94 94.6998 62.1466C94.6998 62.2949 94.7418 62.4157 94.8256 62.5093C94.9094 62.6029 95.0128 62.6741 95.1356 62.7227C95.2584 62.7715 95.431 62.8271 95.6531 62.8894C95.9223 62.9636 96.1386 63.0366 96.3024 63.1088C96.4661 63.1809 96.6065 63.292 96.7234 63.4421C96.8406 63.5923 96.8989 63.796 96.8989 64.0534C96.8989 64.2522 96.8463 64.4393 96.7411 64.6148C96.6358 64.7904 96.4798 64.9326 96.2731 65.0418C96.0665 65.1509 95.8228 65.2055 95.5421 65.2055ZM98.9752 65.2055C98.7062 65.2055 98.4654 65.1578 98.2529 65.0622C98.0403 64.9668 97.8737 64.8342 97.7528 64.6645C97.632 64.4949 97.5696 64.299 97.5657 64.0768H98.133C98.1525 64.2678 98.2315 64.4286 98.3699 64.5592C98.5083 64.69 98.71 64.7552 98.9752 64.7552C99.2286 64.7552 99.4285 64.6918 99.5747 64.5651C99.721 64.4384 99.7941 64.2756 99.7941 64.0768C99.7941 63.9208 99.7512 63.7941 99.6654 63.6965C99.5795 63.5991 99.4723 63.525 99.3438 63.4743C99.215 63.4237 99.0415 63.369 98.8231 63.3106C98.5542 63.2404 98.3387 63.1703 98.1768 63.1C98.0151 63.0298 97.8766 62.9196 97.7617 62.7695C97.6466 62.6194 97.5891 62.4177 97.5891 62.1643C97.5891 61.942 97.6456 61.7451 97.7587 61.5735C97.8718 61.402 98.0307 61.2693 98.2354 61.1758C98.44 61.0822 98.675 61.0355 98.9401 61.0355C99.3223 61.0355 99.6352 61.131 99.8788 61.322C100.123 61.513 100.26 61.7665 100.291 62.0823H99.7063C99.6869 61.9263 99.605 61.7889 99.4607 61.67C99.3164 61.5511 99.1253 61.4916 98.8875 61.4916C98.6652 61.4916 98.484 61.5491 98.3435 61.6642C98.2032 61.7792 98.133 61.94 98.133 62.1466C98.133 62.2949 98.175 62.4157 98.2588 62.5093C98.3426 62.6029 98.4459 62.6741 98.5688 62.7227C98.6916 62.7715 98.8641 62.8271 99.0863 62.8894C99.3554 62.9636 99.5718 63.0366 99.7355 63.1088C99.8993 63.1809 100.04 63.292 100.157 63.4421C100.274 63.5923 100.332 63.796 100.332 64.0534C100.332 64.2522 100.279 64.4393 100.174 64.6148C100.069 64.7904 99.9129 64.9326 99.7063 65.0418C99.4996 65.1509 99.256 65.2055 98.9752 65.2055Z" fill="#898A89"/>
<path fill-rule="evenodd" clip-rule="evenodd" d="M44.9582 8.45756H48.4729C48.4729 15.0111 48.4729 21.5646 48.4729 28.1182H44.9582H33.9746V24.6035H44.9582V20.0452H39.2871V16.5305H44.9582V8.45756Z" fill="#006F63"/>
<path fill-rule="evenodd" clip-rule="evenodd" d="M50.6699 8.24301H55.942V28.1182H50.6699V8.24301Z" fill="#E97D1E"/>
<path fill-rule="evenodd" clip-rule="evenodd" d="M70.8794 0.000469208H65.6074V28.1182H70.8794V0.000469208Z" fill="#E97D1E"/>
<path fill-rule="evenodd" clip-rule="evenodd" d="M63.4108 3.30276H58.1387V28.1182H63.4108V3.30276Z" fill="#E97D1E"/>
<path fill-rule="evenodd" clip-rule="evenodd" d="M76.5909 8.45756H73.0762C73.0762 15.0111 73.0762 21.5646 73.0762 28.1182H76.5909H87.5745V24.6035H76.5909V20.0452H82.2621V16.5305H76.5909V8.45756Z" fill="#006F63"/>
</svg>
