<svg width="134" height="76" viewBox="0 0 134 76" fill="none" xmlns="http://www.w3.org/2000/svg">
<path d="M1 59.4869V43.546H11.8217V46.7791H4.68198V50.2143H10.5643V53.2003H4.68198V59.4869H1ZM66.2452 56.2538V59.4869H77.4486V43.546H66.4472V46.7791H73.7664V49.8774H67.4799V52.8636H73.7664V56.2538H66.2452ZM13.7751 59.4869V43.546H17.4572V59.4869H13.7751ZM24.1928 50.3714V59.4869H20.5108V43.546H23.3847L30.8161 52.9085V43.546H34.4983V59.4869H31.5345L24.1928 50.3714ZM37.5519 59.4869V43.546H41.2338V50.4162L47.0714 43.546H51.2026L45.2303 50.6632L51.6065 59.4869H47.4082L42.8954 53.0657L41.2338 54.7944V59.4869H37.5519ZM64.0001 56.2538V59.4869H52.7967V43.546H63.7979V46.7791H56.4786V49.8774H62.7652V52.8636H56.4786V56.2538H64.0001ZM79.6939 59.4869V43.546H86.4969C87.2601 43.546 87.9599 43.7031 88.5962 44.0175C89.2323 44.3317 89.7786 44.7433 90.2351 45.2524C90.6917 45.7613 91.0509 46.3377 91.3128 46.9812C91.5747 47.6249 91.7057 48.2759 91.7057 48.9345C91.7057 49.638 91.5821 50.3115 91.3353 50.9551C91.0883 51.5988 90.7441 52.1751 90.3024 52.684C89.8608 53.1929 89.3258 53.5969 88.6971 53.8963C88.0686 54.1958 87.3726 54.3455 86.609 54.3455H83.3761V59.4869H79.6939ZM83.3761 51.1346H86.3845C86.8186 51.1346 87.1929 50.9476 87.5072 50.5736C87.8214 50.1993 87.9786 49.653 87.9786 48.9345C87.9786 48.5603 87.9301 48.2385 87.8327 47.969C87.7354 47.6996 87.6045 47.4751 87.4398 47.2955C87.2751 47.1159 87.0882 46.9849 86.8787 46.9025C86.6689 46.8203 86.4593 46.7791 86.2499 46.7791H83.3761V51.1346ZM104.885 56.2538V59.4869H93.6816V43.546H104.683V46.7791H97.3636V49.8774H103.65V52.8636H97.3636V56.2538H104.885ZM107.13 59.4869V43.546H114.315C115.063 43.546 115.755 43.7031 116.392 44.0175C117.028 44.3317 117.578 44.7433 118.042 45.2524C118.506 45.7613 118.869 46.3377 119.131 46.9812C119.393 47.6249 119.524 48.2759 119.524 48.9345C119.524 49.4284 119.464 49.9037 119.344 50.3601C119.224 50.8167 119.052 51.2471 118.827 51.6513C118.603 52.0553 118.33 52.4182 118.008 52.7402C117.686 53.0618 117.323 53.335 116.919 53.5595L120.422 59.4869H116.268L113.215 54.3455H110.812V59.4869H107.13ZM110.812 51.1346H114.18C114.614 51.1346 114.988 50.9289 115.303 50.5173C115.617 50.1057 115.774 49.5781 115.774 48.9345C115.774 48.2759 115.594 47.7521 115.235 47.3628C114.876 46.9737 114.487 46.7791 114.068 46.7791H110.812V51.1346ZM131.737 48.2161C131.693 48.1561 131.535 48.0439 131.266 47.8793C130.996 47.7145 130.66 47.5423 130.256 47.3628C129.852 47.1831 129.41 47.026 128.931 46.8913C128.452 46.7566 127.973 46.6893 127.494 46.6893C126.177 46.6893 125.518 47.1307 125.518 48.0139C125.518 48.2833 125.589 48.5078 125.732 48.6875C125.874 48.8671 126.083 49.028 126.36 49.1701C126.637 49.3124 126.985 49.4434 127.404 49.5631C127.823 49.6828 128.31 49.8175 128.863 49.9672C129.627 50.1768 130.315 50.4051 130.929 50.652C131.543 50.899 132.063 51.2059 132.489 51.5725C132.916 51.9392 133.246 52.3845 133.478 52.9085C133.709 53.4323 133.825 54.0611 133.825 54.7944C133.825 55.6924 133.657 56.4521 133.32 57.0732C132.983 57.6946 132.538 58.1959 131.984 58.5776C131.43 58.9593 130.794 59.2362 130.076 59.4083C129.358 59.5803 128.617 59.6665 127.853 59.6665C127.269 59.6665 126.671 59.6215 126.057 59.5319C125.443 59.4419 124.845 59.3112 124.261 59.1389C123.677 58.9667 123.112 58.761 122.566 58.5214C122.019 58.2819 121.514 58.005 121.05 57.6908L122.667 54.4802C122.727 54.555 122.921 54.6971 123.251 54.9066C123.58 55.1163 123.988 55.3258 124.474 55.5354C124.961 55.7449 125.503 55.932 126.102 56.0967C126.701 56.2612 127.307 56.3434 127.921 56.3434C129.223 56.3434 129.874 55.947 129.874 55.1537C129.874 54.8543 129.777 54.6074 129.582 54.4127C129.387 54.2183 129.118 54.0423 128.774 53.8851C128.429 53.7279 128.022 53.582 127.55 53.4473C127.079 53.3125 126.566 53.163 126.012 52.9983C125.279 52.7736 124.643 52.5304 124.104 52.2685C123.565 52.0066 123.12 51.7036 122.768 51.3592C122.416 51.0151 122.154 50.6182 121.982 50.1694C121.81 49.7202 121.724 49.1964 121.724 48.5978C121.724 47.7595 121.881 47.0185 122.195 46.3749C122.51 45.7313 122.936 45.1887 123.475 44.7471C124.014 44.3057 124.639 43.9725 125.35 43.7481C126.061 43.5236 126.813 43.4112 127.606 43.4112C128.16 43.4112 128.706 43.4637 129.245 43.5685C129.784 43.6734 130.3 43.8079 130.795 43.9725C131.288 44.1373 131.749 44.3244 132.175 44.5339C132.602 44.7433 132.995 44.9531 133.354 45.1625L131.737 48.2161Z" fill="white"/>
<path fill-rule="evenodd" clip-rule="evenodd" d="M50.0025 10.1385H53.8433C53.8433 17.3 53.8433 24.4615 53.8433 31.623H50.0025H38V27.7823H50.0025V22.8012H43.8053V18.9604H50.0025V10.1385Z" fill="#006F63"/>
<path fill-rule="evenodd" clip-rule="evenodd" d="M56.2441 9.90408H62.0053V31.623H56.2441V9.90408Z" fill="#E97D1E"/>
<path fill-rule="evenodd" clip-rule="evenodd" d="M78.328 0.896877H72.5669V31.623H78.328V0.896877Z" fill="#E97D1E"/>
<path fill-rule="evenodd" clip-rule="evenodd" d="M70.1665 4.50553H64.4053V31.623H70.1665V4.50553Z" fill="#E97D1E"/>
<path fill-rule="evenodd" clip-rule="evenodd" d="M84.5698 10.1385H80.729C80.729 17.3 80.729 24.4615 80.729 31.623H84.5698H96.5723V27.7823H84.5698V22.8012H90.7671V18.9604H84.5698V10.1385Z" fill="#006F63"/>
<path d="M0.192477 67.105H1.49325L3.04858 69.9176H3.11067L4.666 67.105H5.96677L3.65395 71.0911V73.4629H2.5053V71.0911L0.192477 67.105ZM12.2799 70.2839C12.2799 70.969 12.1516 71.5557 11.895 72.0442C11.6404 72.5305 11.2927 72.9031 10.8519 73.1618C10.4131 73.4205 9.91534 73.5498 9.35861 73.5498C8.80188 73.5498 8.3031 73.4205 7.86226 73.1618C7.4235 72.901 7.0758 72.5274 6.81916 72.041C6.5646 71.5526 6.43731 70.9669 6.43731 70.2839C6.43731 69.5989 6.5646 69.0132 6.81916 68.5268C7.0758 68.0384 7.4235 67.6648 7.86226 67.4061C8.3031 67.1474 8.80188 67.018 9.35861 67.018C9.91534 67.018 10.4131 67.1474 10.8519 67.4061C11.2927 67.6648 11.6404 68.0384 11.895 68.5268C12.1516 69.0132 12.2799 69.5989 12.2799 70.2839ZM11.1219 70.2839C11.1219 69.8017 11.0464 69.395 10.8953 69.0639C10.7463 68.7307 10.5393 68.4792 10.2744 68.3095C10.0095 68.1377 9.70424 68.0518 9.35861 68.0518C9.01298 68.0518 8.70771 68.1377 8.4428 68.3095C8.17788 68.4792 7.96988 68.7307 7.8188 69.0639C7.66979 69.395 7.59528 69.8017 7.59528 70.2839C7.59528 70.7661 7.66979 71.1739 7.8188 71.5071C7.96988 71.8382 8.17788 72.0897 8.4428 72.2615C8.70771 72.4312 9.01298 72.516 9.35861 72.516C9.70424 72.516 10.0095 72.4312 10.2744 72.2615C10.5393 72.0897 10.7463 71.8382 10.8953 71.5071C11.0464 71.1739 11.1219 70.7661 11.1219 70.2839ZM17.5515 67.105H18.7033V71.2587C18.7033 71.714 18.5956 72.1145 18.3804 72.4602C18.1672 72.8058 17.8671 73.0759 17.4801 73.2704C17.0931 73.4629 16.6409 73.5591 16.1234 73.5591C15.604 73.5591 15.1507 73.4629 14.7637 73.2704C14.3767 73.0759 14.0766 72.8058 13.8634 72.4602C13.6502 72.1145 13.5436 71.714 13.5436 71.2587V67.105H14.6954V71.1625C14.6954 71.4274 14.7533 71.6633 14.8692 71.8703C14.9872 72.0773 15.1528 72.2397 15.366 72.3577C15.5791 72.4736 15.8316 72.5316 16.1234 72.5316C16.4153 72.5316 16.6678 72.4736 16.8809 72.3577C17.0962 72.2397 17.2617 72.0773 17.3776 71.8703C17.4935 71.6633 17.5515 71.4274 17.5515 71.1625V67.105ZM20.13 73.4629V67.105H22.5142C23.0026 67.105 23.4124 67.1898 23.7436 67.3595C24.0768 67.5292 24.3282 67.7672 24.4979 68.0735C24.6697 68.3778 24.7556 68.7327 24.7556 69.1384C24.7556 69.5461 24.6687 69.9 24.4948 70.2001C24.3231 70.4981 24.0695 70.7289 23.7342 70.8924C23.399 71.0538 22.9871 71.1345 22.4987 71.1345H20.8005V70.1784H22.3434C22.6291 70.1784 22.8629 70.139 23.0451 70.0604C23.2272 69.9797 23.3617 69.8628 23.4486 69.7096C23.5376 69.5544 23.5821 69.364 23.5821 69.1384C23.5821 68.9128 23.5376 68.7203 23.4486 68.5609C23.3596 68.3995 23.2241 68.2774 23.042 68.1946C22.8598 68.1098 22.6249 68.0673 22.3372 68.0673H21.2817V73.4629H20.13ZM23.4145 70.582L24.9884 73.4629H23.7032L22.1572 70.582H23.4145ZM28.3339 73.4629V67.105H30.7678C31.2273 67.105 31.6091 67.1774 31.9134 67.3223C32.2197 67.4651 32.4484 67.6607 32.5995 67.909C32.7526 68.1574 32.8292 68.4388 32.8292 68.7534C32.8292 69.0121 32.7795 69.2336 32.6802 69.4178C32.5808 69.5999 32.4473 69.7479 32.2797 69.8617C32.1121 69.9755 31.9248 70.0573 31.7178 70.107V70.1691C31.9434 70.1815 32.1597 70.2508 32.3666 70.3771C32.5757 70.5012 32.7464 70.6772 32.8789 70.9048C33.0113 71.1325 33.0776 71.4077 33.0776 71.7306C33.0776 72.0597 32.9979 72.3556 32.8385 72.6185C32.6791 72.8793 32.4391 73.0852 32.1183 73.2363C31.7975 73.3873 31.3939 73.4629 30.9075 73.4629H28.3339ZM29.4857 72.5005H30.7244C31.1424 72.5005 31.4436 72.4208 31.6278 72.2615C31.814 72.1 31.9072 71.8931 31.9072 71.6406C31.9072 71.4522 31.8606 71.2825 31.7675 71.1314C31.6743 70.9783 31.5419 70.8582 31.3701 70.7713C31.1983 70.6823 30.9934 70.6378 30.7554 70.6378H29.4857V72.5005ZM29.4857 69.8089H30.625C30.8237 69.8089 31.0027 69.7727 31.1621 69.7003C31.3215 69.6258 31.4467 69.5213 31.5377 69.3867C31.6309 69.2501 31.6774 69.0887 31.6774 68.9024C31.6774 68.6562 31.5905 68.4533 31.4167 68.294C31.2449 68.1346 30.9893 68.0549 30.6499 68.0549H29.4857V69.8089ZM39.9355 70.2839C39.9355 70.969 39.8072 71.5557 39.5506 72.0442C39.296 72.5305 38.9483 72.9031 38.5075 73.1618C38.0687 73.4205 37.571 73.5498 37.0142 73.5498C36.4575 73.5498 35.9587 73.4205 35.5179 73.1618C35.0791 72.901 34.7314 72.5274 34.4748 72.041C34.2202 71.5526 34.0929 70.9669 34.0929 70.2839C34.0929 69.5989 34.2202 69.0132 34.4748 68.5268C34.7314 68.0384 35.0791 67.6648 35.5179 67.4061C35.9587 67.1474 36.4575 67.018 37.0142 67.018C37.571 67.018 38.0687 67.1474 38.5075 67.4061C38.9483 67.6648 39.296 68.0384 39.5506 68.5268C39.8072 69.0132 39.9355 69.5989 39.9355 70.2839ZM38.7776 70.2839C38.7776 69.8017 38.702 69.395 38.5509 69.0639C38.4019 68.7307 38.195 68.4792 37.93 68.3095C37.6651 68.1377 37.3599 68.0518 37.0142 68.0518C36.6686 68.0518 36.3633 68.1377 36.0984 68.3095C35.8335 68.4792 35.6255 68.7307 35.4744 69.0639C35.3254 69.395 35.2509 69.8017 35.2509 70.2839C35.2509 70.7661 35.3254 71.1739 35.4744 71.5071C35.6255 71.8382 35.8335 72.0897 36.0984 72.2615C36.3633 72.4312 36.6686 72.516 37.0142 72.516C37.3599 72.516 37.6651 72.4312 37.93 72.2615C38.195 72.0897 38.4019 71.8382 38.5509 71.5071C38.702 71.1739 38.7776 70.7661 38.7776 70.2839ZM46.8804 70.2839C46.8804 70.969 46.7521 71.5557 46.4955 72.0442C46.2409 72.5305 45.8932 72.9031 45.4524 73.1618C45.0136 73.4205 44.5159 73.5498 43.9591 73.5498C43.4024 73.5498 42.9036 73.4205 42.4628 73.1618C42.024 72.901 41.6763 72.5274 41.4197 72.041C41.1651 71.5526 41.0378 70.9669 41.0378 70.2839C41.0378 69.5989 41.1651 69.0132 41.4197 68.5268C41.6763 68.0384 42.024 67.6648 42.4628 67.4061C42.9036 67.1474 43.4024 67.018 43.9591 67.018C44.5159 67.018 45.0136 67.1474 45.4524 67.4061C45.8932 67.6648 46.2409 68.0384 46.4955 68.5268C46.7521 69.0132 46.8804 69.5989 46.8804 70.2839ZM45.7225 70.2839C45.7225 69.8017 45.6469 69.395 45.4958 69.0639C45.3468 68.7307 45.1399 68.4792 44.8749 68.3095C44.61 68.1377 44.3048 68.0518 43.9591 68.0518C43.6135 68.0518 43.3082 68.1377 43.0433 68.3095C42.7784 68.4792 42.5704 68.7307 42.4193 69.0639C42.2703 69.395 42.1958 69.8017 42.1958 70.2839C42.1958 70.7661 42.2703 71.1739 42.4193 71.5071C42.5704 71.8382 42.7784 72.0897 43.0433 72.2615C43.3082 72.4312 43.6135 72.516 43.9591 72.516C44.3048 72.516 44.61 72.4312 44.8749 72.2615C45.1399 72.0897 45.3468 71.8382 45.4958 71.5071C45.6469 71.1739 45.7225 70.7661 45.7225 70.2839ZM48.1441 73.4629V67.105H49.2959V70.0263H49.3735L51.854 67.105H53.2603L50.8016 69.958L53.282 73.4629H51.8974L50.0006 70.7372L49.2959 71.5692V73.4629H48.1441ZM57.6564 68.8528C57.6275 68.5816 57.5053 68.3705 57.2901 68.2195C57.0769 68.0684 56.7996 67.9928 56.4581 67.9928C56.218 67.9928 56.0121 68.0291 55.8403 68.1015C55.6685 68.1739 55.5371 68.2722 55.4461 68.3964C55.355 68.5206 55.3084 68.6624 55.3064 68.8217C55.3064 68.9542 55.3364 69.069 55.3964 69.1663C55.4585 69.2636 55.5423 69.3464 55.6478 69.4147C55.7534 69.4809 55.8703 69.5368 55.9986 69.5823C56.127 69.6278 56.2563 69.6661 56.3867 69.6972L56.9828 69.8462C57.2228 69.9021 57.4536 69.9776 57.6751 70.0728C57.8986 70.168 58.0983 70.2881 58.2742 70.4329C58.4522 70.5778 58.5929 70.7527 58.6964 70.9576C58.7999 71.1625 58.8516 71.4026 58.8516 71.6778C58.8516 72.0504 58.7564 72.3784 58.566 72.6619C58.3756 72.9434 58.1004 73.1638 57.7403 73.3232C57.3822 73.4805 56.9486 73.5591 56.4395 73.5591C55.9448 73.5591 55.5154 73.4826 55.1511 73.3294C54.7889 73.1762 54.5054 72.9527 54.3005 72.6588C54.0977 72.3649 53.988 72.0069 53.9714 71.5847H55.1046C55.1211 71.8061 55.1894 71.9903 55.3095 72.1373C55.4295 72.2842 55.5858 72.3939 55.7782 72.4664C55.9728 72.5388 56.1901 72.575 56.4302 72.575C56.6806 72.575 56.9 72.5378 57.0883 72.4633C57.2787 72.3867 57.4277 72.2811 57.5354 72.1466C57.643 72.01 57.6978 71.8506 57.6999 71.6685C57.6978 71.5029 57.6492 71.3663 57.554 71.2587C57.4588 71.149 57.3253 71.058 57.1535 70.9855C56.9838 70.911 56.7851 70.8448 56.5575 70.7868L55.8341 70.6006C55.3105 70.4661 54.8966 70.2622 54.5923 69.989C54.2902 69.7137 54.1391 69.3484 54.1391 68.8931C54.1391 68.5185 54.2405 68.1905 54.4433 67.909C54.6482 67.6275 54.9266 67.4092 55.2784 67.254C55.6303 67.0967 56.0287 67.018 56.4736 67.018C56.9248 67.018 57.3201 67.0967 57.6595 67.254C58.001 67.4092 58.269 67.6255 58.4636 67.9028C58.6581 68.1781 58.7585 68.4947 58.7647 68.8528H57.6564ZM61.323 72.5936L61.2827 72.9351C61.2537 73.1959 61.2019 73.4608 61.1274 73.7299C61.055 74.001 60.9784 74.2504 60.8977 74.478C60.817 74.7057 60.7518 74.8847 60.7021 75.0151H59.9446C59.9736 74.8889 60.0129 74.7171 60.0626 74.4998C60.1143 74.2825 60.164 74.0383 60.2116 73.7671C60.2592 73.496 60.2913 73.2207 60.3079 72.9413L60.3296 72.5936H61.323ZM70.6345 70.2839C70.6345 70.969 70.5062 71.5557 70.2495 72.0442C69.995 72.5305 69.6473 72.9031 69.2065 73.1618C68.7677 73.4205 68.2699 73.5498 67.7132 73.5498C67.1565 73.5498 66.6577 73.4205 66.2169 73.1618C65.7781 72.901 65.4304 72.5274 65.1738 72.041C64.9192 71.5526 64.7919 70.9669 64.7919 70.2839C64.7919 69.5989 64.9192 69.0132 65.1738 68.5268C65.4304 68.0384 65.7781 67.6648 66.2169 67.4061C66.6577 67.1474 67.1565 67.018 67.7132 67.018C68.2699 67.018 68.7677 67.1474 69.2065 67.4061C69.6473 67.6648 69.995 68.0384 70.2495 68.5268C70.5062 69.0132 70.6345 69.5989 70.6345 70.2839ZM69.4765 70.2839C69.4765 69.8017 69.401 69.395 69.2499 69.0639C69.1009 68.7307 68.8939 68.4792 68.629 68.3095C68.3641 68.1377 68.0588 68.0518 67.7132 68.0518C67.3676 68.0518 67.0623 68.1377 66.7974 68.3095C66.5325 68.4792 66.3245 68.7307 66.1734 69.0639C66.0244 69.395 65.9499 69.8017 65.9499 70.2839C65.9499 70.7661 66.0244 71.1739 66.1734 71.5071C66.3245 71.8382 66.5325 72.0897 66.7974 72.2615C67.0623 72.4312 67.3676 72.516 67.7132 72.516C68.0588 72.516 68.3641 72.4312 68.629 72.2615C68.8939 72.0897 69.1009 71.8382 69.2499 71.5071C69.401 71.1739 69.4765 70.7661 69.4765 70.2839ZM75.9061 67.105H77.0578V71.2587C77.0578 71.714 76.9502 72.1145 76.735 72.4602C76.5218 72.8058 76.2217 73.0759 75.8347 73.2704C75.4477 73.4629 74.9955 73.5591 74.478 73.5591C73.9586 73.5591 73.5053 73.4629 73.1183 73.2704C72.7313 73.0759 72.4312 72.8058 72.218 72.4602C72.0048 72.1145 71.8982 71.714 71.8982 71.2587V67.105H73.05V71.1625C73.05 71.4274 73.1079 71.6633 73.2238 71.8703C73.3418 72.0773 73.5074 72.2397 73.7206 72.3577C73.9337 72.4736 74.1862 72.5316 74.478 72.5316C74.7699 72.5316 75.0224 72.4736 75.2355 72.3577C75.4508 72.2397 75.6163 72.0773 75.7322 71.8703C75.8481 71.6633 75.9061 71.4274 75.9061 71.1625V67.105ZM78.4846 73.4629V67.105H80.8688C81.3572 67.105 81.767 67.1898 82.0982 67.3595C82.4314 67.5292 82.6828 67.7672 82.8525 68.0735C83.0243 68.3778 83.1102 68.7327 83.1102 69.1384C83.1102 69.5461 83.0233 69.9 82.8494 70.2001C82.6777 70.4981 82.4241 70.7289 82.0888 70.8924C81.7536 71.0538 81.3417 71.1345 80.8533 71.1345H79.1551V70.1784H80.698C80.9837 70.1784 81.2175 70.139 81.3996 70.0604C81.5818 69.9797 81.7163 69.8628 81.8032 69.7096C81.8922 69.5544 81.9367 69.364 81.9367 69.1384C81.9367 68.9128 81.8922 68.7203 81.8032 68.5609C81.7142 68.3995 81.5787 68.2774 81.3965 68.1946C81.2144 68.1098 80.9795 68.0673 80.6918 68.0673H79.6363V73.4629H78.4846ZM81.7691 70.582L83.343 73.4629H82.0578L80.5118 70.582H81.7691ZM90.1438 68.8528C90.1148 68.5816 89.9927 68.3705 89.7775 68.2195C89.5643 68.0684 89.287 67.9928 88.9455 67.9928C88.7054 67.9928 88.4995 68.0291 88.3277 68.1015C88.1559 68.1739 88.0245 68.2722 87.9334 68.3964C87.8424 68.5206 87.7958 68.6624 87.7937 68.8217C87.7937 68.9542 87.8237 69.069 87.8837 69.1663C87.9458 69.2636 88.0297 69.3464 88.1352 69.4147C88.2408 69.4809 88.3577 69.5368 88.486 69.5823C88.6143 69.6278 88.7437 69.6661 88.8741 69.6972L89.4701 69.8462C89.7102 69.9021 89.941 69.9776 90.1624 70.0728C90.3859 70.168 90.5857 70.2881 90.7616 70.4329C90.9396 70.5778 91.0803 70.7527 91.1838 70.9576C91.2873 71.1625 91.339 71.4026 91.339 71.6778C91.339 72.0504 91.2438 72.3784 91.0534 72.6619C90.863 72.9434 90.5877 73.1638 90.2276 73.3232C89.8696 73.4805 89.436 73.5591 88.9268 73.5591C88.4322 73.5591 88.0028 73.4826 87.6385 73.3294C87.2763 73.1762 86.9928 72.9527 86.7879 72.6588C86.5851 72.3649 86.4754 72.0069 86.4588 71.5847H87.5919C87.6085 71.8061 87.6768 71.9903 87.7968 72.1373C87.9169 72.2842 88.0731 72.3939 88.2656 72.4664C88.4601 72.5388 88.6775 72.575 88.9175 72.575C89.168 72.575 89.3873 72.5378 89.5757 72.4633C89.7661 72.3867 89.9151 72.2811 90.0227 72.1466C90.1303 72.01 90.1852 71.8506 90.1873 71.6685C90.1852 71.5029 90.1366 71.3663 90.0413 71.2587C89.9461 71.149 89.8127 71.058 89.6409 70.9855C89.4712 70.911 89.2725 70.8448 89.0448 70.7868L88.3215 70.6006C87.7979 70.4661 87.3839 70.2622 87.0797 69.989C86.7775 69.7137 86.6264 69.3484 86.6264 68.8931C86.6264 68.5185 86.7279 68.1905 86.9307 67.909C87.1356 67.6275 87.4139 67.4092 87.7658 67.254C88.1176 67.0967 88.516 67.018 88.961 67.018C89.4122 67.018 89.8075 67.0967 90.1469 67.254C90.4884 67.4092 90.7564 67.6255 90.951 67.9028C91.1455 68.1781 91.2459 68.4947 91.2521 68.8528H90.1438ZM98.2218 70.2839C98.2218 70.969 98.0935 71.5557 97.8369 72.0442C97.5823 72.5305 97.2346 72.9031 96.7938 73.1618C96.355 73.4205 95.8573 73.5498 95.3005 73.5498C94.7438 73.5498 94.245 73.4205 93.8042 73.1618C93.3654 72.901 93.0177 72.5274 92.7611 72.041C92.5065 71.5526 92.3792 70.9669 92.3792 70.2839C92.3792 69.5989 92.5065 69.0132 92.7611 68.5268C93.0177 68.0384 93.3654 67.6648 93.8042 67.4061C94.245 67.1474 94.7438 67.018 95.3005 67.018C95.8573 67.018 96.355 67.1474 96.7938 67.4061C97.2346 67.6648 97.5823 68.0384 97.8369 68.5268C98.0935 69.0132 98.2218 69.5989 98.2218 70.2839ZM97.0639 70.2839C97.0639 69.8017 96.9883 69.395 96.8372 69.0639C96.6882 68.7307 96.4813 68.4792 96.2163 68.3095C95.9514 68.1377 95.6462 68.0518 95.3005 68.0518C94.9549 68.0518 94.6496 68.1377 94.3847 68.3095C94.1198 68.4792 93.9118 68.7307 93.7607 69.0639C93.6117 69.395 93.5372 69.8017 93.5372 70.2839C93.5372 70.7661 93.6117 71.1739 93.7607 71.5071C93.9118 71.8382 94.1198 72.0897 94.3847 72.2615C94.6496 72.4312 94.9549 72.516 95.3005 72.516C95.6462 72.516 95.9514 72.4312 96.2163 72.2615C96.4813 72.0897 96.6882 71.8382 96.8372 71.5071C96.9883 71.1739 97.0639 70.7661 97.0639 70.2839ZM99.4856 73.4629V67.105H100.637V72.4974H103.438V73.4629H99.4856ZM108.62 67.105H109.772V71.2587C109.772 71.714 109.664 72.1145 109.449 72.4602C109.236 72.8058 108.935 73.0759 108.548 73.2704C108.161 73.4629 107.709 73.5591 107.192 73.5591C106.672 73.5591 106.219 73.4629 105.832 73.2704C105.445 73.0759 105.145 72.8058 104.932 72.4602C104.719 72.1145 104.612 71.714 104.612 71.2587V67.105H105.764V71.1625C105.764 71.4274 105.822 71.6633 105.938 71.8703C106.056 72.0773 106.221 72.2397 106.434 72.3577C106.648 72.4736 106.9 72.5316 107.192 72.5316C107.484 72.5316 107.736 72.4736 107.949 72.3577C108.165 72.2397 108.33 72.0773 108.446 71.8703C108.562 71.6633 108.62 71.4274 108.62 71.1625V67.105ZM110.919 68.0704V67.105H115.992V68.0704H114.026V73.4629H112.884V68.0704H110.919ZM118.296 67.105V73.4629H117.144V67.105H118.296ZM125.399 70.2839C125.399 70.969 125.271 71.5557 125.014 72.0442C124.76 72.5305 124.412 72.9031 123.971 73.1618C123.533 73.4205 123.035 73.5498 122.478 73.5498C121.921 73.5498 121.423 73.4205 120.982 73.1618C120.543 72.901 120.195 72.5274 119.939 72.041C119.684 71.5526 119.557 70.9669 119.557 70.2839C119.557 69.5989 119.684 69.0132 119.939 68.5268C120.195 68.0384 120.543 67.6648 120.982 67.4061C121.423 67.1474 121.921 67.018 122.478 67.018C123.035 67.018 123.533 67.1474 123.971 67.4061C124.412 67.6648 124.76 68.0384 125.014 68.5268C125.271 69.0132 125.399 69.5989 125.399 70.2839ZM124.241 70.2839C124.241 69.8017 124.166 69.395 124.015 69.0639C123.866 68.7307 123.659 68.4792 123.394 68.3095C123.129 68.1377 122.824 68.0518 122.478 68.0518C122.132 68.0518 121.827 68.1377 121.562 68.3095C121.297 68.4792 121.089 68.7307 120.938 69.0639C120.789 69.395 120.715 69.8017 120.715 70.2839C120.715 70.7661 120.789 71.1739 120.938 71.5071C121.089 71.8382 121.297 72.0897 121.562 72.2615C121.827 72.4312 122.132 72.516 122.478 72.516C122.824 72.516 123.129 72.4312 123.394 72.2615C123.659 72.0897 123.866 71.8382 124.015 71.5071C124.166 71.1739 124.241 70.7661 124.241 70.2839ZM131.888 67.105V73.4629H130.863L127.868 69.1322H127.815V73.4629H126.663V67.105H127.694L130.686 71.4388H130.742V67.105H131.888Z" fill="#EDEDED"/>
</svg>
