<svg width="40" height="40" viewBox="0 0 40 40" fill="none" xmlns="http://www.w3.org/2000/svg">
<circle cx="20" cy="20" r="20" fill="#ED7C00"/>
<g clip-path="url(#clip0_1555_5751)">
<path d="M31.3334 19.9982C31.333 19.7693 31.2394 19.5439 31.0852 19.3843C30.8671 19.1587 25.7315 13.9125 20.1744 13.8043C20.0513 13.8009 19.9503 13.8009 19.827 13.8043C14.2699 13.9124 9.13423 19.1587 8.91615 19.3843C8.76855 19.537 8.66762 19.7585 8.66797 20.0012C8.66846 20.232 8.76315 20.4568 8.91615 20.6151C9.13423 20.8407 14.2698 26.0869 19.827 26.1951C19.9499 26.1985 20.0513 26.1985 20.1744 26.1951C25.7315 26.0869 30.8671 20.8406 31.0852 20.615C31.2392 20.4558 31.3338 20.2338 31.3334 19.9982ZM20.0007 24.4267C17.56 24.4267 15.5736 22.4409 15.5736 19.9997C15.5736 17.5588 17.5596 15.5726 20.0007 15.5726C22.4413 15.5726 24.4278 17.5584 24.4278 19.9997C24.4278 22.4405 22.4417 24.4267 20.0007 24.4267ZM14.3867 22.624C12.8339 21.7062 11.5631 20.6501 10.8406 19.9997C11.5631 19.3492 12.8339 18.2932 14.3867 17.3753C14.0124 18.1727 13.8028 19.0621 13.8028 19.9997C13.8028 20.9372 14.0124 21.8266 14.3867 22.624ZM25.6147 17.3753C27.1676 18.2932 28.4384 19.3493 29.1608 19.9997C28.4383 20.6501 27.1675 21.7062 25.6147 22.624C25.9889 21.8266 26.1986 20.9372 26.1986 19.9997C26.1986 19.0621 25.9889 18.1727 25.6147 17.3753Z" fill="white"/>
<path d="M20 17.3428C18.5353 17.3428 17.3438 18.5344 17.3438 19.999C17.3438 21.4637 18.5353 22.6553 20 22.6553C21.4647 22.6553 22.6562 21.4637 22.6562 19.999C22.6562 18.5344 21.4647 17.3428 20 17.3428ZM20 20.8844C19.5118 20.8844 19.1146 20.4872 19.1146 19.999C19.1146 19.5108 19.5118 19.1136 20 19.1136C20.4882 19.1136 20.8854 19.5108 20.8854 19.999C20.8854 20.4872 20.4882 20.8844 20 20.8844Z" fill="white"/>
<path d="M20.0007 12.2077C20.4897 12.2077 20.8861 11.8113 20.8861 11.3223V9.55143C20.8861 9.06242 20.4897 8.66602 20.0007 8.66602C19.5116 8.66602 19.1152 9.06242 19.1152 9.55143V11.3223C19.1152 11.8113 19.5116 12.2077 20.0007 12.2077Z" fill="white"/>
<path d="M20.0007 27.791C19.5116 27.791 19.1152 28.1874 19.1152 28.6764V30.4473C19.1152 30.9363 19.5116 31.3327 20.0007 31.3327C20.4897 31.3327 20.8861 30.9363 20.8861 30.4473V28.6764C20.8861 28.1874 20.4897 27.791 20.0007 27.791Z" fill="white"/>
<path d="M26.8885 14.3642L28.1406 13.1121C28.4864 12.7663 28.4864 12.2057 28.1406 11.8599C27.7948 11.5142 27.2342 11.5141 26.8885 11.8599L25.6363 13.1121C25.2905 13.4578 25.2905 14.0185 25.6363 14.3642C25.9821 14.71 26.5427 14.71 26.8885 14.3642Z" fill="white"/>
<path d="M13.1131 25.6343L11.8609 26.8865C11.5151 27.2322 11.5151 27.7929 11.8609 28.1386C12.2067 28.4844 12.7673 28.4844 13.1131 28.1386L14.3652 26.8865C14.711 26.5407 14.711 25.9801 14.3652 25.6343C14.0194 25.2886 13.4588 25.2886 13.1131 25.6343Z" fill="white"/>
<path d="M13.1131 14.3642C13.4588 14.71 14.0194 14.71 14.3652 14.3642C14.711 14.0184 14.711 13.4578 14.3652 13.1121L13.1131 11.8599C12.7673 11.5141 12.2067 11.5141 11.8609 11.8599C11.5151 12.2057 11.5151 12.7663 11.8609 13.1121L13.1131 14.3642Z" fill="white"/>
<path d="M26.8884 25.6343C26.5426 25.2886 25.982 25.2886 25.6363 25.6343C25.2905 25.9801 25.2905 26.5408 25.6363 26.8865L26.8884 28.1387C27.2342 28.4844 27.7948 28.4845 28.1406 28.1387C28.4864 27.7929 28.4864 27.2323 28.1406 26.8865L26.8884 25.6343Z" fill="white"/>
</g>
<defs>
<clipPath id="clip0_1555_5751">
<rect width="22.6667" height="22.6667" fill="white" transform="translate(8.66797 8.66602)"/>
</clipPath>
</defs>
</svg>
